<?xml version="1.0" encoding="utf-8"?>
<svg viewBox="0 53.286 500 500" xmlns="http://www.w3.org/2000/svg" xmlns:xlink="http://www.w3.org/1999/xlink">
  <defs>
    <pattern id="pattern-0-0" patternTransform="matrix(1, 0, 0, 1, 237.39785, 300.191147)" xlink:href="#pattern-0"/>
    <pattern x="0" y="0" width="25" height="25" patternUnits="userSpaceOnUse" viewBox="0 0 100 100" id="pattern-0">
      <rect x="0" y="0" width="50" height="100" style="fill: black;"/>
    </pattern>
  </defs>
  <path d="M 111.914 296.981 C 112.443 276.779 129.36 259.345 153.856 250.774 C 154.709 250.227 155.687 249.898 156.945 249.751 C 156.948 249.751 156.952 249.75 156.955 249.75 C 166.513 246.773 177.116 245.116 188.278 245.116 C 225.24 245.116 256.07 263.282 263.134 287.412 C 263.54 287.281 263.963 287.16 264.405 287.051 C 268.294 286.091 274.062 285.749 278.615 287.051 C 283.406 288.422 289.346 291.534 292.38 295.488 C 294.235 297.905 295.699 301.641 296.421 305.042 C 309.335 310.23 318.877 317.258 323.262 325.277 C 328.453 323.983 334.157 323.268 340.143 323.268 C 364.177 323.268 383.66 334.799 383.66 349.023 C 383.66 350.271 383.51 351.498 383.22 352.699 C 436.258 355.987 471.582 361.862 471.582 368.561 C 471.582 378.861 366.769 380.106 263.767 380.106 C 180.696 380.106 131.625 381.78 107.496 374.275 C 96.807 374.777 84.718 374.681 77.904 373.197 C 76.742 372.944 75.621 372.65 74.549 372.321 C 61.791 373.722 49.251 374.267 43.268 373.197 C 36.11 371.916 32.768 368.356 30.391 364.76 C 28.263 361.54 27.747 357.29 28.615 353.215 C 29.649 348.357 31.729 342.178 37.94 337.673 C 42.67 334.241 52.613 330.287 62.694 327.17 C 67.928 312.434 87.179 300.706 111.914 296.981 Z" style="fill-rule: nonzero; fill: rgb(255, 255, 255); paint-order: fill; stroke: url(#pattern-0-0); stroke-linecap: round; stroke-linejoin: round; stroke-width: 2px; stroke-dashoffset: -1px;"/>
</svg>