<svg width="854" height="243" viewBox="0 0 854 243" fill="none" xmlns="http://www.w3.org/2000/svg">
<path d="M5.50299 26.2703V0.525391H8.55559V11.9635H20.4752V0.525391H23.5278V26.2703H20.4752V14.7586H8.55559V26.2703H5.50299ZM26.7349 26.2703V8.28563H29.6058V26.2703H26.7349ZM28.1885 5.49047C27.5586 5.49047 27.0256 5.28206 26.5895 4.86524C26.1777 4.44842 25.9717 3.92126 25.9717 3.28377C25.9717 2.62176 26.1777 2.08234 26.5895 1.66552C27.0256 1.2487 27.5586 1.04029 28.1885 1.04029C28.8184 1.04029 29.3393 1.2487 29.7511 1.66552C30.163 2.08234 30.3689 2.62176 30.3689 3.28377C30.3689 3.92126 30.163 4.44842 29.7511 4.86524C29.3393 5.28206 28.8184 5.49047 28.1885 5.49047ZM34.4797 26.7852C33.777 26.7852 33.1835 26.5523 32.699 26.0864C32.2386 25.6205 32.0085 25.0198 32.0085 24.2842C32.0085 23.5487 32.2386 22.948 32.699 22.4821C33.1835 22.0162 33.777 21.7833 34.4797 21.7833C35.2065 21.7833 35.8 22.0162 36.2604 22.4821C36.7206 22.948 36.9508 23.5487 36.9508 24.2842C36.9508 25.0198 36.7206 25.6205 36.2604 26.0864C35.8 26.5523 35.2065 26.7852 34.4797 26.7852ZM51.2834 26.2703V0.525391H57.0978L63.8572 24.321H64.3296L71.0889 0.525391H76.9034V26.2703H73.9598V2.5482H73.451L66.728 26.2703H61.4587L54.7357 2.5482H54.2269V26.2703H51.2834ZM82.254 33.6259V31.0514H92.4293C93.1318 31.0514 93.4832 30.6837 93.4832 29.9481V23.4015H92.9744C92.7321 23.9164 92.3566 24.4313 91.8478 24.9462C91.3633 25.4366 90.7213 25.8411 89.9218 26.1599C89.1223 26.4541 88.1168 26.6013 86.9055 26.6013C85.6216 26.6013 84.4344 26.3192 83.3442 25.7554C82.2782 25.1915 81.4302 24.3578 80.8003 23.2544C80.1946 22.1511 79.8918 20.8025 79.8918 19.2088V8.28563H82.7627V18.9881C82.7627 20.7535 83.1988 22.0407 84.071 22.8499C84.9674 23.659 86.1667 24.0636 87.6687 24.0636C89.3646 24.0636 90.7576 23.4997 91.8478 22.3717C92.9381 21.2438 93.4832 19.5644 93.4832 17.3331V8.28563H96.3541V30.463C96.3541 31.4438 96.0754 32.2161 95.5182 32.78C94.9852 33.3439 94.1979 33.6259 93.1561 33.6259H82.254ZM106.244 26.2703V8.28563H109.042V11.3382H109.551C109.938 10.4801 110.592 9.70773 111.513 9.0212C112.458 8.31015 113.839 7.95462 115.656 7.95462C116.988 7.95462 118.176 8.2366 119.217 8.80053C120.283 9.36446 121.131 10.1981 121.761 11.3015C122.391 12.4048 122.706 13.7656 122.706 15.3839V26.2703H119.835V15.6045C119.835 13.8146 119.387 12.5151 118.49 11.706C117.618 10.8969 116.431 10.4923 114.929 10.4923C113.209 10.4923 111.804 11.0563 110.714 12.1841C109.648 13.3121 109.115 14.9915 109.115 17.2228V26.2703H106.244ZM131.256 26.7852C130.021 26.7852 128.894 26.5645 127.877 26.1231C126.859 25.6818 126.059 25.0444 125.478 24.2107C124.897 23.377 124.606 22.3595 124.606 21.1581C124.606 19.9322 124.897 18.9268 125.478 18.1422C126.059 17.3331 126.859 16.7324 127.877 16.3401C128.894 15.9233 130.033 15.7149 131.293 15.7149H137.289V14.3908C137.289 13.1159 136.913 12.1106 136.162 11.375C135.436 10.6394 134.345 10.2717 132.892 10.2717C131.461 10.2717 130.348 10.6272 129.548 11.3382C128.749 12.0248 128.204 12.9565 127.913 14.1334L125.224 13.2507C125.514 12.2454 125.975 11.3382 126.605 10.5291C127.234 9.69546 128.07 9.03345 129.112 8.54308C130.178 8.02818 131.45 7.77073 132.928 7.77073C135.205 7.77073 136.974 8.37144 138.234 9.57287C139.493 10.7498 140.123 12.4171 140.123 14.5747V22.7028C140.123 23.4383 140.462 23.8061 141.141 23.8061H142.776V26.2703H140.269C139.469 26.2703 138.827 26.0496 138.343 25.6082C137.857 25.1423 137.616 24.5295 137.616 23.7693V23.5854H137.18C136.913 24.0513 136.549 24.5417 136.09 25.0566C135.654 25.5469 135.048 25.9515 134.273 26.2703C133.497 26.6135 132.492 26.7852 131.256 26.7852ZM131.584 24.2842C133.279 24.2842 134.648 23.7815 135.69 22.7763C136.756 21.7465 137.289 20.3122 137.289 18.4732V18.0687H131.402C130.262 18.0687 129.318 18.3261 128.567 18.841C127.84 19.3314 127.477 20.0793 127.477 21.0845C127.477 22.0897 127.852 22.8744 128.603 23.4383C129.379 24.0022 130.371 24.2842 131.584 24.2842ZM143.982 26.2703V8.28563H146.78V10.5291H147.289C147.629 9.89162 148.186 9.30317 148.961 8.76375C149.737 8.22433 150.827 7.95462 152.231 7.95462C153.612 7.95462 154.727 8.26111 155.575 8.87408C156.447 9.48706 157.078 10.2349 157.464 11.1176H157.973C158.386 10.2349 159.004 9.48706 159.826 8.87408C160.675 8.26111 161.85 7.95462 163.352 7.95462C164.539 7.95462 165.581 8.19982 166.477 8.69019C167.374 9.18057 168.076 9.89162 168.585 10.8233C169.118 11.7305 169.384 12.8216 169.384 14.0966V26.2703H166.513V14.3541C166.513 13.1526 166.163 12.2087 165.459 11.5221C164.782 10.8111 163.824 10.4556 162.588 10.4556C161.28 10.4556 160.203 10.8846 159.354 11.7428C158.531 12.601 158.119 13.8392 158.119 15.4574V26.2703H155.248V14.3541C155.248 13.1526 154.897 12.2087 154.194 11.5221C153.516 10.8111 152.558 10.4556 151.323 10.4556C150.015 10.4556 148.937 10.8846 148.089 11.7428C147.266 12.601 146.853 13.8392 146.853 15.4574V26.2703H143.982ZM180.663 26.7852C178.87 26.7852 177.295 26.4052 175.938 25.645C174.582 24.8605 173.528 23.7693 172.777 22.3717C172.025 20.9742 171.65 19.3559 171.65 17.517V17.0757C171.65 15.2122 172.025 13.5817 172.777 12.1841C173.528 10.7866 174.569 9.70773 175.902 8.94764C177.235 8.16304 178.761 7.77073 180.481 7.77073C182.152 7.77073 183.631 8.13852 184.914 8.87408C186.198 9.58513 187.204 10.6149 187.931 11.9635C188.657 13.3121 189.021 14.8935 189.021 16.7079V18.0319H174.521C174.594 19.9689 175.211 21.4891 176.374 22.5924C177.537 23.6712 178.991 24.2107 180.735 24.2107C182.262 24.2107 183.436 23.8551 184.26 23.1441C185.084 22.4331 185.714 21.5872 186.15 20.6064L188.621 21.8201C188.258 22.5802 187.749 23.3402 187.095 24.1003C186.465 24.8605 185.629 25.4979 184.587 26.0128C183.57 26.5277 182.262 26.7852 180.663 26.7852ZM174.557 15.6413H186.114C186.016 13.9741 185.448 12.6745 184.406 11.7428C183.388 10.8111 182.08 10.3452 180.481 10.3452C178.857 10.3452 177.526 10.8111 176.483 11.7428C175.441 12.6745 174.8 13.9741 174.557 15.6413ZM197.911 26.2703V8.28563H200.782V26.2703H197.911ZM199.365 5.49047C198.735 5.49047 198.202 5.28206 197.766 4.86524C197.354 4.44842 197.148 3.92126 197.148 3.28377C197.148 2.62176 197.354 2.08234 197.766 1.66552C198.202 1.2487 198.735 1.04029 199.365 1.04029C199.994 1.04029 200.516 1.2487 200.928 1.66552C201.339 2.08234 201.545 2.62176 201.545 3.28377C201.545 3.92126 201.339 4.44842 200.928 4.86524C200.516 5.28206 199.994 5.49047 199.365 5.49047ZM211.252 26.7852C209.047 26.7852 207.182 26.2703 205.656 25.2405C204.154 24.2107 203.246 22.5802 202.93 20.3489L205.656 19.7237C205.849 20.9006 206.212 21.8323 206.746 22.5189C207.279 23.1809 207.933 23.659 208.708 23.9532C209.508 24.2229 210.355 24.3578 211.252 24.3578C212.585 24.3578 213.639 24.0881 214.414 23.5487C215.189 23.0092 215.577 22.286 215.577 21.3787C215.577 20.4471 215.202 19.7973 214.45 19.4295C213.723 19.0371 212.717 18.7185 211.434 18.4732L209.944 18.2158C208.806 18.0197 207.763 17.7131 206.819 17.2963C205.874 16.8796 205.122 16.3155 204.565 15.6045C204.009 14.8935 203.73 13.9985 203.73 12.9197C203.73 11.3015 204.347 10.0387 205.583 9.13153C206.819 8.22433 208.454 7.77073 210.489 7.77073C212.499 7.77073 214.123 8.2366 215.359 9.16831C216.619 10.0755 217.43 11.3628 217.793 13.03L215.104 13.7288C214.886 12.4293 214.366 11.5221 213.542 11.0072C212.717 10.4678 211.7 10.1981 210.489 10.1981C209.278 10.1981 208.32 10.431 207.618 10.8969C206.916 11.3382 206.564 12.0002 206.564 12.8829C206.564 13.741 206.891 14.3786 207.545 14.7954C208.224 15.1877 209.12 15.482 210.235 15.6781L211.725 15.9355C212.985 16.1562 214.111 16.4626 215.104 16.855C216.122 17.2228 216.921 17.7622 217.503 18.4732C218.109 19.1842 218.411 20.1161 218.411 21.2684C218.411 23.0338 217.757 24.3946 216.449 25.3508C215.165 26.307 213.433 26.7852 211.252 26.7852Z" fill="#D4F6CC"/>
<path d="M6.2298 153.681V52.5405H44.4911C50.4872 52.5405 55.8172 53.7446 60.4809 56.1527C65.2398 58.4645 68.9992 61.7877 71.7594 66.1223C74.5196 70.4569 75.8996 75.7066 75.8996 81.8713V83.7496C75.8996 89.818 74.4719 95.0678 71.6166 99.4986C68.8564 103.833 65.097 107.156 60.3381 109.468C55.5792 111.78 50.2968 112.936 44.4911 112.936H18.2221V153.681H6.2298ZM18.2221 101.955H43.2062C49.583 101.955 54.6275 100.366 58.3394 97.1868C62.0513 93.9119 63.9073 89.3364 63.9073 83.4606V82.0158C63.9073 76.14 62.0513 71.6127 58.3394 68.434C54.7226 65.1591 49.6783 63.5215 43.2062 63.5215H18.2221V101.955ZM81.6939 153.681V83.0272H92.6869V91.6964H94.6856C95.9229 88.6139 97.8265 86.3504 100.396 84.9055C102.966 83.4606 106.345 82.7382 110.533 82.7382H118.813V93.1412H109.819C104.774 93.1412 100.682 94.5861 97.541 97.4758C94.4952 100.269 92.9724 104.652 92.9724 110.624V153.681H81.6939ZM143.847 155.704C138.993 155.704 134.567 154.837 130.57 153.103C126.573 151.369 123.432 148.864 121.147 145.59C118.863 142.315 117.721 138.317 117.721 133.597C117.721 128.781 118.863 124.832 121.147 121.75C123.432 118.571 126.573 116.211 130.57 114.67C134.567 113.032 139.041 112.213 143.99 112.213H167.546V107.012C167.546 102.003 166.071 98.0538 163.121 95.164C160.265 92.2743 155.982 90.8294 150.272 90.8294C144.656 90.8294 140.278 92.2261 137.137 95.0195C133.996 97.7166 131.855 101.377 130.713 106.001L120.148 102.533C121.29 98.5835 123.099 95.0196 125.573 91.8408C128.048 88.5659 131.332 85.9651 135.424 84.0386C139.612 82.0158 144.609 81.0044 150.414 81.0044C159.361 81.0044 166.309 83.3644 171.258 88.0842C176.207 92.7078 178.682 99.2579 178.682 107.734V139.666C178.682 142.556 180.015 144 182.679 144H189.104V153.681H179.253C176.112 153.681 173.59 152.814 171.686 151.08C169.782 149.251 168.831 146.842 168.831 143.856V143.134H167.118C166.071 144.963 164.643 146.89 162.835 148.913C161.122 150.84 158.743 152.429 155.697 153.681C152.651 155.03 148.701 155.704 143.847 155.704ZM145.132 145.879C151.794 145.879 157.172 143.905 161.265 139.955C165.453 135.909 167.546 130.274 167.546 123.05V121.461H144.418C139.944 121.461 136.232 122.472 133.282 124.495C130.427 126.421 129 129.359 129 133.308C129 137.258 130.475 140.34 133.425 142.556C136.471 144.772 140.373 145.879 145.132 145.879ZM193.844 153.681V52.5405H205.122V112.069H207.121L239.101 83.0272H254.805L216.115 117.415L255.947 153.681H240.385L207.121 122.905H205.122V153.681H193.844ZM259.956 153.681V52.5405H271.235V94.2971H273.233C274.185 92.178 275.612 90.2033 277.516 88.3732C279.515 86.4466 282.037 84.8573 285.083 83.6051C288.224 82.353 292.173 81.7268 296.932 81.7268C302.167 81.7268 306.831 82.8827 310.924 85.1945C315.112 87.41 318.442 90.685 320.917 95.0195C323.392 99.2579 324.629 104.556 324.629 110.913V153.681H313.351V111.78C313.351 104.748 311.589 99.6431 308.068 96.4644C304.642 93.2857 299.979 91.6964 294.077 91.6964C287.319 91.6964 281.799 93.9119 277.516 98.3427C273.328 102.774 271.235 109.372 271.235 118.137V153.681H259.956ZM358.219 155.704C353.365 155.704 348.94 154.837 344.942 153.103C340.945 151.369 337.804 148.864 335.52 145.59C333.235 142.315 332.093 138.317 332.093 133.597C332.093 128.781 333.235 124.832 335.52 121.75C337.804 118.571 340.945 116.211 344.942 114.67C348.94 113.032 353.413 112.213 358.362 112.213H381.918V107.012C381.918 102.003 380.443 98.0538 377.493 95.164C374.637 92.2743 370.354 90.8294 364.644 90.8294C359.028 90.8294 354.65 92.2261 351.509 95.0195C348.368 97.7166 346.227 101.377 345.085 106.001L334.52 102.533C335.662 98.5835 337.47 95.0196 339.945 91.8408C342.42 88.5659 345.704 85.9651 349.796 84.0386C353.984 82.0158 358.981 81.0044 364.787 81.0044C373.733 81.0044 380.682 83.3644 385.63 88.0842C390.579 92.7078 393.054 99.2579 393.054 107.734V139.666C393.054 142.556 394.387 144 397.052 144H403.476V153.681H393.625C390.484 153.681 387.963 152.814 386.059 151.08C384.155 149.251 383.203 146.842 383.203 143.856V143.134H381.49C380.443 144.963 379.015 146.89 377.207 148.913C375.494 150.84 373.115 152.429 370.069 153.681C367.023 155.03 363.073 155.704 358.219 155.704ZM359.504 145.879C366.166 145.879 371.545 143.905 375.637 139.955C379.825 135.909 381.918 130.274 381.918 123.05V121.461H358.79C354.317 121.461 350.605 122.472 347.655 124.495C344.799 126.421 343.372 129.359 343.372 133.308C343.372 137.258 344.847 140.34 347.797 142.556C350.844 144.772 354.745 145.879 359.504 145.879ZM408.215 153.681V83.0272H419.208V91.6964H421.206C422.445 88.6139 424.347 86.3504 426.917 84.9055C429.487 83.4606 432.866 82.7382 437.053 82.7382H445.334V93.1412H436.34C431.296 93.1412 427.203 94.5861 424.062 97.4758C421.017 100.269 419.493 104.652 419.493 110.624V153.681H408.215ZM497.315 153.681L467.191 52.5405H479.612L506.88 146.312H508.736L536.004 52.5405H548.425L518.301 153.681H497.315ZM579.838 155.704C572.795 155.704 566.608 154.21 561.278 151.225C555.949 148.142 551.809 143.856 548.857 138.365C545.907 132.875 544.432 126.518 544.432 119.293V117.559C544.432 110.239 545.907 103.833 548.857 98.3427C551.809 92.8523 555.901 88.6139 561.135 85.6279C566.371 82.5455 572.367 81.0044 579.124 81.0044C585.691 81.0044 591.498 82.4492 596.541 85.339C601.586 88.1324 605.535 92.178 608.391 97.4758C611.246 102.774 612.674 108.987 612.674 116.115V121.316H555.71C555.996 128.926 558.423 134.898 562.991 139.232C567.56 143.471 573.27 145.59 580.123 145.59C586.119 145.59 590.736 144.194 593.971 141.4C597.208 138.606 599.682 135.283 601.395 131.43L611.103 136.198C609.676 139.184 607.677 142.171 605.107 145.156C602.633 148.142 599.35 150.647 595.256 152.67C591.259 154.692 586.119 155.704 579.838 155.704ZM555.853 111.924H601.252C600.872 105.374 598.636 100.269 594.542 96.6089C590.545 92.9485 585.405 91.1184 579.124 91.1184C572.747 91.1184 567.513 92.9485 563.419 96.6089C559.327 100.269 556.805 105.374 555.853 111.924ZM621.639 153.681V83.0272H632.632V91.6964H634.631C635.868 88.6139 637.772 86.3504 640.342 84.9055C642.912 83.4606 646.29 82.7382 650.478 82.7382H658.759V93.1412H649.764C644.719 93.1412 640.627 94.5861 637.486 97.4758C634.44 100.269 632.918 104.652 632.918 110.624V153.681H621.639ZM664.748 153.681V83.0272H675.741V91.8408H677.74C679.072 89.3364 681.261 87.0246 684.307 84.9055C687.352 82.7864 691.635 81.7268 697.156 81.7268C702.581 81.7268 706.959 82.9309 710.291 85.339C713.717 87.747 716.191 90.685 717.714 94.1526H719.713C721.33 90.685 723.757 87.747 726.994 85.339C730.325 82.9309 734.941 81.7268 740.842 81.7268C745.506 81.7268 749.598 82.69 753.12 84.6165C756.641 86.5431 759.402 89.3364 761.401 92.9967C763.494 96.5607 764.542 100.847 764.542 105.856V153.681H753.263V106.867C753.263 102.148 751.882 98.439 749.123 95.742C746.457 92.9485 742.698 91.5519 737.844 91.5519C732.705 91.5519 728.469 93.2375 725.138 96.6089C721.901 99.9803 720.284 104.845 720.284 111.202V153.681H709.006V106.867C709.006 102.148 707.625 98.439 704.865 95.742C702.2 92.9485 698.441 91.5519 693.587 91.5519C688.447 91.5519 684.211 93.2375 680.881 96.6089C677.644 99.9803 676.027 104.845 676.027 111.202V153.681H664.748ZM798.284 155.704C793.43 155.704 789.004 154.837 785.006 153.103C781.009 151.369 777.868 148.864 775.584 145.59C773.3 142.315 772.158 138.317 772.158 133.597C772.158 128.781 773.3 124.832 775.584 121.75C777.868 118.571 781.009 116.211 785.006 114.67C789.004 113.032 793.478 112.213 798.427 112.213H821.983V107.012C821.983 102.003 820.509 98.0538 817.557 95.164C814.702 92.2743 810.419 90.8294 804.708 90.8294C799.094 90.8294 794.715 92.2261 791.574 95.0195C788.433 97.7166 786.291 101.377 785.149 106.001L774.585 102.533C775.727 98.5835 777.536 95.0196 780.01 91.8408C782.485 88.5659 785.768 85.9651 789.861 84.0386C794.049 82.0158 799.046 81.0044 804.851 81.0044C813.798 81.0044 820.746 83.3644 825.695 88.0842C830.645 92.7078 833.119 99.2579 833.119 107.734V139.666C833.119 142.556 834.452 144 837.116 144H843.54V153.681H833.69C830.549 153.681 828.027 152.814 826.123 151.08C824.22 149.251 823.268 146.842 823.268 143.856V143.134H821.555C820.508 144.963 819.081 146.89 817.272 148.913C815.558 150.84 813.179 152.429 810.133 153.681C807.088 155.03 803.138 155.704 798.284 155.704ZM799.569 145.879C806.232 145.879 811.609 143.905 815.701 139.955C819.889 135.909 821.983 130.274 821.983 123.05V121.461H798.855C794.382 121.461 790.67 122.472 787.719 124.495C784.864 126.421 783.436 129.359 783.436 133.308C783.436 137.258 784.912 140.34 787.862 142.556C790.908 144.772 794.811 145.879 799.569 145.879Z" fill="#FFE5C4"/>
<g clip-path="url(#clip0_12_132)">
<path d="M397.268 204.333V183.8H399.731V204.333H397.268ZM404.279 190.605V189.139H405.129C405.833 189.139 406.184 188.787 406.184 188.083V187.144H405.774C405.207 187.144 404.728 186.968 404.337 186.616C403.966 186.264 403.78 185.824 403.78 185.296C403.78 184.729 403.966 184.269 404.337 183.917C404.728 183.565 405.207 183.389 405.774 183.389C406.341 183.389 406.81 183.575 407.181 183.947C407.552 184.318 407.738 184.788 407.738 185.355V188.083C407.738 189.765 406.898 190.605 405.217 190.605H404.279ZM411.871 204.333V189.989H414.128V191.779H414.539C414.812 191.27 415.262 190.801 415.887 190.371C416.512 189.941 417.392 189.725 418.525 189.725C419.639 189.725 420.538 189.97 421.222 190.459C421.926 190.948 422.434 191.544 422.747 192.248H423.157C423.489 191.544 423.988 190.948 424.652 190.459C425.336 189.97 426.284 189.725 427.496 189.725C428.454 189.725 429.294 189.921 430.017 190.312C430.74 190.703 431.307 191.27 431.717 192.013C432.147 192.737 432.362 193.607 432.362 194.624V204.333H430.046V194.829C430.046 193.871 429.763 193.118 429.196 192.571C428.649 192.004 427.877 191.72 426.88 191.72C425.825 191.72 424.955 192.062 424.271 192.747C423.607 193.431 423.275 194.419 423.275 195.709V204.333H420.959V194.829C420.959 193.871 420.675 193.118 420.108 192.571C419.561 192.004 418.789 191.72 417.793 191.72C416.737 191.72 415.867 192.062 415.183 192.747C414.519 193.431 414.187 194.419 414.187 195.709V204.333H411.871ZM449.019 204.744C448.022 204.744 447.113 204.568 446.293 204.216C445.472 203.864 444.827 203.356 444.358 202.691C443.889 202.026 443.654 201.214 443.654 200.256C443.654 199.278 443.889 198.476 444.358 197.851C444.827 197.205 445.472 196.726 446.293 196.413C447.113 196.081 448.032 195.915 449.048 195.915H453.885V194.859C453.885 193.842 453.583 193.04 452.976 192.453C452.39 191.867 451.511 191.573 450.338 191.573C449.185 191.573 448.286 191.857 447.641 192.424C446.996 192.972 446.556 193.715 446.322 194.653L444.153 193.949C444.387 193.148 444.759 192.424 445.267 191.779C445.774 191.114 446.448 190.586 447.289 190.195C448.149 189.784 449.175 189.579 450.367 189.579C452.205 189.579 453.631 190.058 454.647 191.016C455.664 191.955 456.172 193.285 456.172 195.005V201.488C456.172 202.075 456.445 202.368 456.993 202.368H458.312V204.333H456.289C455.644 204.333 455.126 204.157 454.735 203.805C454.345 203.434 454.149 202.945 454.149 202.339V202.192H453.797C453.583 202.564 453.29 202.955 452.918 203.365C452.566 203.756 452.077 204.079 451.452 204.333C450.827 204.607 450.016 204.744 449.019 204.744ZM449.283 202.749C450.651 202.749 451.755 202.348 452.595 201.547C453.455 200.725 453.885 199.581 453.885 198.115V197.792H449.136C448.218 197.792 447.456 197.997 446.85 198.408C446.263 198.799 445.97 199.396 445.97 200.197C445.97 200.999 446.273 201.625 446.879 202.075C447.504 202.524 448.306 202.749 449.283 202.749ZM476.078 204.744C474.554 204.744 473.205 204.431 472.033 203.805C470.879 203.16 469.97 202.221 469.307 200.989C468.662 199.757 468.339 198.232 468.339 196.413V191.72C468.339 189.002 469.061 186.939 470.508 185.531C471.954 184.103 473.898 183.389 476.342 183.389C478.765 183.389 480.612 184.054 481.883 185.384C483.153 186.714 483.788 188.493 483.788 190.723V190.869H481.355V190.664C481.355 189.686 481.179 188.816 480.827 188.053C480.476 187.291 479.928 186.694 479.186 186.264C478.442 185.814 477.495 185.589 476.342 185.589C474.602 185.589 473.244 186.127 472.267 187.203C471.289 188.259 470.802 189.745 470.802 191.661V196.472C470.802 198.388 471.289 199.884 472.267 200.96C473.244 202.016 474.613 202.544 476.372 202.544C478.09 202.544 479.351 202.055 480.153 201.077C480.974 200.1 481.384 198.799 481.384 197.176V196.677H475.17V194.565H483.788V204.333H481.56V202.104H481.15C480.934 202.534 480.632 202.955 480.241 203.365C479.849 203.776 479.322 204.108 478.658 204.363C477.993 204.617 477.134 204.744 476.078 204.744ZM495.694 204.744C494.17 204.744 492.841 204.47 491.707 203.923C490.573 203.375 489.694 202.564 489.069 201.488C488.444 200.393 488.131 199.053 488.131 197.469V183.8H490.564V197.499C490.564 199.18 491.013 200.442 491.913 201.283C492.812 202.124 494.073 202.544 495.694 202.544C497.316 202.544 498.577 202.124 499.476 201.283C500.375 200.442 500.825 199.18 500.825 197.499V183.8H503.287V197.469C503.287 199.053 502.974 200.393 502.349 201.488C501.724 202.564 500.834 203.375 499.681 203.923C498.547 204.47 497.219 204.744 495.694 204.744ZM507.803 204.333V183.8H510.265V204.333H507.803ZM521.521 204.333V202.133H524.394V186H521.521V183.8H529.524C532.221 183.8 534.303 184.485 535.769 185.853C537.254 187.222 537.996 189.325 537.996 192.16V195.973C537.996 198.828 537.254 200.94 535.769 202.309C534.303 203.659 532.221 204.333 529.524 204.333H521.521ZM526.857 202.104H529.524C531.518 202.104 533.022 201.615 534.039 200.637C535.056 199.66 535.563 198.144 535.563 196.091V192.072C535.563 189.98 535.056 188.454 534.039 187.496C533.022 186.538 531.518 186.059 529.524 186.059H526.857V202.104ZM548.582 204.744C547.136 204.744 545.865 204.441 544.771 203.835C543.677 203.209 542.827 202.339 542.221 201.224C541.614 200.109 541.312 198.819 541.312 197.352V197C541.312 195.514 541.614 194.213 542.221 193.099C542.827 191.984 543.666 191.124 544.742 190.517C545.817 189.892 547.048 189.579 548.435 189.579C549.784 189.579 550.977 189.872 552.012 190.459C553.047 191.026 553.859 191.847 554.445 192.923C555.031 193.998 555.325 195.26 555.325 196.707V197.763H543.628C543.686 199.308 544.185 200.52 545.123 201.4C546.061 202.26 547.234 202.691 548.641 202.691C549.872 202.691 550.819 202.407 551.484 201.84C552.149 201.273 552.657 200.598 553.009 199.816L555.002 200.784C554.709 201.39 554.299 201.996 553.771 202.603C553.263 203.209 552.589 203.717 551.748 204.128C550.927 204.539 549.872 204.744 548.582 204.744ZM543.657 195.856H552.979C552.901 194.526 552.442 193.49 551.601 192.747C550.781 192.004 549.725 191.632 548.435 191.632C547.126 191.632 546.052 192.004 545.211 192.747C544.37 193.49 543.853 194.526 543.657 195.856ZM562.398 204.333L557.267 189.989H559.73L564.039 202.603H564.45L568.759 189.989H571.221L566.091 204.333H562.398ZM580.53 204.744C579.085 204.744 577.815 204.441 576.719 203.835C575.625 203.209 574.775 202.339 574.169 201.224C573.564 200.109 573.26 198.819 573.26 197.352V197C573.26 195.514 573.564 194.213 574.169 193.099C574.775 191.984 575.616 191.124 576.69 190.517C577.765 189.892 578.997 189.579 580.384 189.579C581.732 189.579 582.925 189.872 583.96 190.459C584.997 191.026 585.807 191.847 586.394 192.923C586.98 193.998 587.273 195.26 587.273 196.707V197.763H575.576C575.635 199.308 576.133 200.52 577.071 201.4C578.009 202.26 579.182 202.691 580.589 202.691C581.82 202.691 582.769 202.407 583.433 201.84C584.098 201.273 584.605 200.598 584.957 199.816L586.951 200.784C586.657 201.39 586.247 201.996 585.719 202.603C585.212 203.209 584.537 203.717 583.697 204.128C582.876 204.539 581.82 204.744 580.53 204.744ZM575.605 195.856H584.928C584.85 194.526 584.391 193.49 583.55 192.747C582.729 192.004 581.674 191.632 580.384 191.632C579.075 191.632 578 192.004 577.159 192.747C576.32 193.49 575.801 194.526 575.605 195.856ZM591.313 204.333V183.8H593.629V204.333H591.313ZM605.125 204.744C603.678 204.744 602.398 204.441 601.284 203.835C600.189 203.228 599.33 202.378 598.705 201.283C598.098 200.168 597.796 198.858 597.796 197.352V196.971C597.796 195.485 598.098 194.184 598.705 193.069C599.33 191.955 600.189 191.094 601.284 190.488C602.398 189.882 603.678 189.579 605.125 189.579C606.571 189.579 607.84 189.882 608.936 190.488C610.05 191.094 610.909 191.955 611.516 193.069C612.14 194.184 612.454 195.485 612.454 196.971V197.352C612.454 198.858 612.14 200.168 611.516 201.283C610.909 202.378 610.05 203.228 608.936 203.835C607.84 204.441 606.571 204.744 605.125 204.744ZM605.125 202.661C606.649 202.661 607.86 202.182 608.76 201.224C609.678 200.246 610.138 198.936 610.138 197.293V197.029C610.138 195.387 609.678 194.086 608.76 193.128C607.86 192.15 606.649 191.661 605.125 191.661C603.619 191.661 602.408 192.15 601.49 193.128C600.57 194.086 600.112 195.387 600.112 197.029V197.293C600.112 198.936 600.57 200.246 601.49 201.224C602.408 202.182 603.619 202.661 605.125 202.661ZM616.62 210.2V189.989H618.878V192.365H619.288C619.66 191.642 620.256 190.997 621.076 190.429C621.917 189.862 623.079 189.579 624.565 189.579C625.796 189.579 626.919 189.882 627.936 190.488C628.972 191.075 629.792 191.916 630.399 193.011C631.024 194.106 631.337 195.426 631.337 196.971V197.352C631.337 198.877 631.034 200.197 630.428 201.312C629.822 202.427 629.001 203.277 627.965 203.864C626.949 204.451 625.816 204.744 624.565 204.744C623.568 204.744 622.718 204.607 622.014 204.333C621.331 204.079 620.774 203.747 620.343 203.336C619.913 202.925 619.581 202.505 619.347 202.075H618.936V210.2H616.62ZM623.949 202.691C625.435 202.691 626.637 202.221 627.555 201.283C628.493 200.324 628.962 198.995 628.962 197.293V197.029C628.962 195.328 628.493 194.008 627.555 193.069C626.637 192.111 625.435 191.632 623.949 191.632C622.483 191.632 621.272 192.111 620.314 193.069C619.376 194.008 618.907 195.328 618.907 197.029V197.293C618.907 198.995 619.376 200.324 620.314 201.283C621.272 202.221 622.483 202.691 623.949 202.691ZM642.053 204.744C640.607 204.744 639.337 204.441 638.242 203.835C637.148 203.209 636.298 202.339 635.691 201.224C635.086 200.109 634.783 198.819 634.783 197.352V197C634.783 195.514 635.086 194.213 635.691 193.099C636.298 191.984 637.139 191.124 638.213 190.517C639.288 189.892 640.519 189.579 641.906 189.579C643.255 189.579 644.447 189.872 645.483 190.459C646.519 191.026 647.33 191.847 647.916 192.923C648.502 193.998 648.795 195.26 648.795 196.707V197.763H637.099C637.157 199.308 637.656 200.52 638.594 201.4C639.532 202.26 640.704 202.691 642.111 202.691C643.343 202.691 644.291 202.407 644.955 201.84C645.62 201.273 646.128 200.598 646.479 199.816L648.473 200.784C648.18 201.39 647.769 201.996 647.242 202.603C646.734 203.209 646.06 203.717 645.219 204.128C644.398 204.539 643.343 204.744 642.053 204.744ZM637.128 195.856H646.45C646.373 194.526 645.913 193.49 645.072 192.747C644.252 192.004 643.196 191.632 641.906 191.632C640.598 191.632 639.522 192.004 638.682 192.747C637.842 193.49 637.324 194.526 637.128 195.856ZM652.836 204.333V189.989H655.093V191.749H655.503C655.758 191.124 656.148 190.664 656.676 190.371C657.204 190.077 657.898 189.931 658.757 189.931H660.458V192.043H658.611C657.575 192.043 656.735 192.336 656.09 192.923C655.465 193.49 655.152 194.38 655.152 195.592V204.333H652.836ZM661.79 208V206.533H662.64C663.344 206.533 663.696 206.181 663.696 205.477V204.539H663.285C662.719 204.539 662.241 204.363 661.849 204.011C661.478 203.659 661.292 203.219 661.292 202.691C661.292 202.124 661.478 201.664 661.849 201.312C662.241 200.96 662.719 200.784 663.285 200.784C663.853 200.784 664.322 200.97 664.692 201.341C665.064 201.713 665.249 202.182 665.249 202.749V205.477C665.249 207.159 664.41 208 662.728 208H661.79ZM683.268 204.744C680.824 204.744 678.88 204.04 677.434 202.632C675.987 201.204 675.265 199.132 675.265 196.413V191.72C675.265 189.002 675.987 186.939 677.434 185.531C678.88 184.103 680.824 183.389 683.268 183.389C685.69 183.389 687.548 184.064 688.838 185.413C690.146 186.763 690.802 188.611 690.802 190.957V191.104H688.368V190.869C688.368 189.325 687.947 188.063 687.108 187.085C686.287 186.088 685.007 185.589 683.268 185.589C681.527 185.589 680.17 186.127 679.193 187.203C678.215 188.259 677.727 189.745 677.727 191.661V196.472C677.727 198.388 678.215 199.884 679.193 200.96C680.17 202.016 681.527 202.544 683.268 202.544C685.007 202.544 686.287 202.055 687.108 201.077C687.947 200.08 688.368 198.809 688.368 197.264V196.795H690.802V197.176C690.802 199.523 690.146 201.371 688.838 202.72C687.548 204.069 685.69 204.744 683.268 204.744ZM694.747 204.333V183.8H697.063V192.277H697.474C697.669 191.847 697.963 191.446 698.353 191.075C698.763 190.684 699.282 190.361 699.907 190.107C700.552 189.853 701.363 189.725 702.34 189.725C703.415 189.725 704.372 189.96 705.213 190.429C706.072 190.879 706.757 191.544 707.265 192.424C707.773 193.285 708.027 194.36 708.027 195.651V204.333H705.711V195.827C705.711 194.399 705.35 193.363 704.627 192.717C703.923 192.072 702.965 191.749 701.754 191.749C700.367 191.749 699.233 192.199 698.353 193.099C697.494 193.998 697.063 195.338 697.063 197.117V204.333H694.747ZM712.726 204.333V189.989H715.042V204.333H712.726ZM713.898 187.76C713.391 187.76 712.96 187.594 712.608 187.261C712.277 186.929 712.11 186.509 712.11 186C712.11 185.472 712.277 185.042 712.608 184.709C712.96 184.377 713.391 184.211 713.898 184.211C714.407 184.211 714.827 184.377 715.159 184.709C715.492 185.042 715.657 185.472 715.657 186C715.657 186.509 715.492 186.929 715.159 187.261C714.827 187.594 714.407 187.76 713.898 187.76ZM719.912 210.2V189.989H722.169V192.365H722.58C722.95 191.642 723.547 190.997 724.368 190.429C725.207 189.862 726.371 189.579 727.856 189.579C729.088 189.579 730.211 189.882 731.228 190.488C732.263 191.075 733.084 191.916 733.69 193.011C734.315 194.106 734.628 195.426 734.628 196.971V197.352C734.628 198.877 734.324 200.197 733.719 201.312C733.113 202.427 732.292 203.277 731.257 203.864C730.24 204.451 729.106 204.744 727.856 204.744C726.86 204.744 726.009 204.607 725.306 204.333C724.621 204.079 724.064 203.747 723.635 203.336C723.205 202.925 722.873 202.505 722.638 202.075H722.228V210.2H719.912ZM727.241 202.691C728.725 202.691 729.927 202.221 730.847 201.283C731.785 200.324 732.254 198.995 732.254 197.293V197.029C732.254 195.328 731.785 194.008 730.847 193.069C729.927 192.111 728.725 191.632 727.241 191.632C725.775 191.632 724.562 192.111 723.606 193.069C722.668 194.008 722.198 195.328 722.198 197.029V197.293C722.198 198.995 722.668 200.324 723.606 201.283C724.562 202.221 725.775 202.691 727.241 202.691ZM738.66 197.851V195.709H747.338V197.851H738.66ZM758.187 204.744C756.956 204.744 755.822 204.451 754.787 203.864C753.75 203.277 752.929 202.427 752.324 201.312C751.718 200.197 751.415 198.877 751.415 197.352V196.971C751.415 195.445 751.718 194.135 752.324 193.04C752.929 191.925 753.741 191.075 754.757 190.488C755.793 189.882 756.936 189.579 758.187 189.579C759.184 189.579 760.023 189.716 760.708 189.989C761.412 190.244 761.978 190.576 762.409 190.987C762.838 191.378 763.171 191.798 763.405 192.248H763.816V183.8H766.132V204.333H763.874V201.957H763.464C763.072 202.681 762.467 203.326 761.646 203.893C760.826 204.46 759.672 204.744 758.187 204.744ZM758.803 202.691C760.287 202.691 761.489 202.221 762.409 201.283C763.347 200.324 763.816 198.995 763.816 197.293V197.029C763.816 195.328 763.347 194.008 762.409 193.069C761.489 192.111 760.287 191.632 758.803 191.632C757.337 191.632 756.124 192.111 755.168 193.069C754.23 194.008 753.761 195.328 753.761 197.029V197.293C753.761 198.995 754.23 200.324 755.168 201.283C756.124 202.221 757.337 202.691 758.803 202.691ZM777.551 204.744C776.106 204.744 774.834 204.441 773.74 203.835C772.646 203.209 771.796 202.339 771.19 201.224C770.584 200.109 770.281 198.819 770.281 197.352V197C770.281 195.514 770.584 194.213 771.19 193.099C771.796 191.984 772.636 191.124 773.711 190.517C774.786 189.892 776.018 189.579 777.405 189.579C778.753 189.579 779.946 189.872 780.981 190.459C782.017 191.026 782.828 191.847 783.414 192.923C784.001 193.998 784.294 195.26 784.294 196.707V197.763H772.597C772.656 199.308 773.154 200.52 774.092 201.4C775.03 202.26 776.203 202.691 777.61 202.691C778.841 202.691 779.789 202.407 780.454 201.84C781.118 201.273 781.626 200.598 781.978 199.816L783.971 200.784C783.678 201.39 783.268 201.996 782.74 202.603C782.232 203.209 781.558 203.717 780.717 204.128C779.897 204.539 778.841 204.744 777.551 204.744ZM772.626 195.856H781.949C781.87 194.526 781.412 193.49 780.571 192.747C779.75 192.004 778.695 191.632 777.405 191.632C776.095 191.632 775.021 192.004 774.18 192.747C773.339 193.49 772.822 194.526 772.626 195.856ZM794.108 204.744C792.33 204.744 790.825 204.333 789.593 203.512C788.382 202.691 787.649 201.39 787.395 199.611L789.593 199.112C789.751 200.051 790.044 200.794 790.473 201.341C790.903 201.869 791.431 202.251 792.056 202.485C792.701 202.7 793.386 202.808 794.108 202.808C795.183 202.808 796.033 202.593 796.658 202.163C797.285 201.732 797.596 201.156 797.596 200.432C797.596 199.689 797.294 199.171 796.688 198.877C796.101 198.564 795.291 198.31 794.254 198.115L793.052 197.909C792.134 197.753 791.294 197.508 790.531 197.176C789.769 196.844 789.164 196.394 788.714 195.827C788.265 195.26 788.04 194.546 788.04 193.685C788.04 192.395 788.538 191.388 789.535 190.664C790.531 189.941 791.851 189.579 793.492 189.579C795.115 189.579 796.424 189.95 797.42 190.693C798.437 191.417 799.091 192.444 799.385 193.773L797.215 194.331C797.039 193.294 796.62 192.571 795.955 192.16C795.291 191.73 794.47 191.515 793.492 191.515C792.515 191.515 791.744 191.701 791.176 192.072C790.61 192.424 790.326 192.952 790.326 193.656C790.326 194.341 790.59 194.849 791.118 195.181C791.665 195.494 792.389 195.729 793.287 195.885L794.489 196.091C795.506 196.267 796.414 196.511 797.215 196.824C798.036 197.117 798.681 197.548 799.15 198.115C799.639 198.682 799.883 199.425 799.883 200.344C799.883 201.752 799.355 202.837 798.3 203.6C797.265 204.363 795.867 204.744 794.108 204.744ZM803.793 204.333V189.989H806.108V204.333H803.793ZM804.965 187.76C804.458 187.76 804.027 187.594 803.675 187.261C803.344 186.929 803.177 186.509 803.177 186C803.177 185.472 803.344 185.042 803.675 184.709C804.027 184.377 804.458 184.211 804.965 184.211C805.473 184.211 805.894 184.377 806.226 184.709C806.558 185.042 806.724 185.472 806.724 186C806.724 186.509 806.558 186.929 806.226 187.261C805.894 187.594 805.473 187.76 804.965 187.76ZM810.275 197.235V196.824C810.275 195.318 810.578 194.028 811.184 192.952C811.789 191.877 812.61 191.045 813.647 190.459C814.682 189.872 815.816 189.579 817.047 189.579C818.552 189.579 819.704 189.872 820.506 190.459C821.327 191.026 821.932 191.661 822.324 192.365H822.734V189.989H824.933V207.677C824.933 208.46 824.717 209.076 824.288 209.525C823.858 209.975 823.233 210.2 822.412 210.2H812.679V208.147H821.796C822.383 208.147 822.676 207.853 822.676 207.267V201.811H822.265C822.031 202.241 821.698 202.661 821.269 203.072C820.838 203.483 820.281 203.825 819.598 204.099C818.913 204.353 818.063 204.48 817.047 204.48C815.816 204.48 814.682 204.187 813.647 203.6C812.61 203.013 811.789 202.182 811.184 201.107C810.578 200.012 810.275 198.721 810.275 197.235ZM817.663 202.427C819.147 202.427 820.349 201.957 821.269 201.019C822.207 200.08 822.676 198.789 822.676 197.147V196.912C822.676 195.25 822.207 193.959 821.269 193.04C820.349 192.101 819.147 191.632 817.663 191.632C816.197 191.632 814.984 192.101 814.028 193.04C813.09 193.959 812.621 195.25 812.621 196.912V197.147C812.621 198.789 813.09 200.08 814.028 201.019C814.984 201.957 816.197 202.427 817.663 202.427ZM829.787 204.333V189.989H832.045V192.424H832.455C832.767 191.74 833.295 191.124 834.038 190.576C834.8 190.009 835.914 189.725 837.38 189.725C838.454 189.725 839.412 189.95 840.253 190.4C841.112 190.85 841.796 191.515 842.305 192.395C842.813 193.275 843.067 194.36 843.067 195.651V204.333H840.751V195.827C840.751 194.399 840.389 193.363 839.667 192.717C838.963 192.072 838.005 191.749 836.794 191.749C835.405 191.749 834.273 192.199 833.393 193.099C832.532 193.998 832.103 195.338 832.103 197.117V204.333H829.787ZM305.333 242.077C304.337 242.077 303.428 241.901 302.607 241.549C301.786 241.197 301.141 240.689 300.672 240.024C300.203 239.359 299.969 238.548 299.969 237.589C299.969 236.612 300.203 235.81 300.672 235.184C301.141 234.539 301.786 234.06 302.607 233.747C303.428 233.414 304.346 233.248 305.363 233.248H310.2V232.192C310.2 231.175 309.897 230.373 309.291 229.787C308.705 229.2 307.825 228.907 306.653 228.907C305.5 228.907 304.601 229.19 303.956 229.757C303.311 230.305 302.871 231.048 302.636 231.987L300.467 231.283C300.702 230.481 301.073 229.757 301.581 229.112C302.089 228.447 302.763 227.919 303.604 227.528C304.464 227.117 305.49 226.912 306.682 226.912C308.519 226.912 309.946 227.391 310.962 228.349C311.978 229.288 312.486 230.618 312.486 232.339V238.821C312.486 239.408 312.76 239.701 313.307 239.701H314.626V241.667H312.604C311.959 241.667 311.441 241.491 311.05 241.139C310.659 240.767 310.464 240.278 310.464 239.672V239.525H310.112C309.897 239.897 309.604 240.288 309.232 240.699C308.881 241.09 308.392 241.412 307.767 241.667C307.141 241.94 306.33 242.077 305.333 242.077ZM305.597 240.083C306.965 240.083 308.07 239.682 308.91 238.88C309.77 238.059 310.2 236.915 310.2 235.448V235.125H305.451C304.532 235.125 303.77 235.331 303.164 235.741C302.578 236.132 302.285 236.729 302.285 237.531C302.285 238.332 302.588 238.958 303.193 239.408C303.819 239.858 304.62 240.083 305.597 240.083ZM317.798 241.667V227.323H320.056V229.757H320.466C320.779 229.073 321.306 228.457 322.049 227.909C322.811 227.342 323.925 227.059 325.391 227.059C326.466 227.059 327.423 227.284 328.264 227.733C329.124 228.183 329.808 228.848 330.316 229.728C330.824 230.608 331.078 231.693 331.078 232.984V241.667H328.762V233.16C328.762 231.732 328.401 230.696 327.678 230.051C326.974 229.405 326.016 229.083 324.805 229.083C323.417 229.083 322.283 229.532 321.404 230.432C320.544 231.332 320.114 232.671 320.114 234.451V241.667H317.798ZM341.845 242.077C340.614 242.077 339.48 241.784 338.444 241.197C337.409 240.611 336.588 239.76 335.982 238.645C335.376 237.531 335.073 236.211 335.073 234.685V234.304C335.073 232.779 335.376 231.468 335.982 230.373C336.588 229.259 337.399 228.408 338.415 227.821C339.451 227.215 340.594 226.912 341.845 226.912C342.842 226.912 343.682 227.049 344.366 227.323C345.07 227.577 345.637 227.909 346.066 228.32C346.496 228.711 346.829 229.132 347.063 229.581H347.474V221.133H349.789V241.667H347.532V239.291H347.122C346.731 240.014 346.125 240.66 345.304 241.227C344.483 241.794 343.33 242.077 341.845 242.077ZM342.461 240.024C343.946 240.024 345.148 239.555 346.066 238.616C347.005 237.658 347.474 236.328 347.474 234.627V234.363C347.474 232.661 347.005 231.341 346.066 230.403C345.148 229.444 343.946 228.965 342.461 228.965C340.995 228.965 339.783 229.444 338.826 230.403C337.887 231.341 337.418 232.661 337.418 234.363V234.627C337.418 236.328 337.887 237.658 338.826 238.616C339.783 239.555 340.995 240.024 342.461 240.024ZM362.084 241.667V221.133H374.719V223.363H364.547V230.227H373.898V232.456H364.547V239.437H374.866V241.667H362.084ZM378.691 241.667V227.323H380.948V229.112H381.358C381.632 228.604 382.081 228.134 382.707 227.704C383.332 227.274 384.212 227.059 385.345 227.059C386.459 227.059 387.358 227.303 388.042 227.792C388.746 228.281 389.254 228.877 389.567 229.581H389.977C390.309 228.877 390.808 228.281 391.472 227.792C392.156 227.303 393.104 227.059 394.316 227.059C395.273 227.059 396.114 227.254 396.837 227.645C397.56 228.036 398.127 228.604 398.537 229.347C398.967 230.07 399.182 230.94 399.182 231.957V241.667H396.866V232.163C396.866 231.204 396.583 230.452 396.016 229.904C395.469 229.337 394.697 229.053 393.7 229.053C392.645 229.053 391.775 229.396 391.091 230.08C390.426 230.764 390.094 231.752 390.094 233.043V241.667H387.778V232.163C387.778 231.204 387.495 230.452 386.928 229.904C386.381 229.337 385.609 229.053 384.612 229.053C383.557 229.053 382.687 229.396 382.003 230.08C381.339 230.764 381.007 231.752 381.007 233.043V241.667H378.691ZM411.857 242.077C410.371 242.077 409.208 241.794 408.368 241.227C407.547 240.66 406.951 240.014 406.58 239.291H406.17V241.667H403.912V221.133H406.228V229.581H406.639C406.873 229.132 407.205 228.711 407.635 228.32C408.065 227.909 408.622 227.577 409.306 227.323C410.01 227.049 410.86 226.912 411.857 226.912C413.107 226.912 414.241 227.215 415.257 227.821C416.293 228.408 417.114 229.259 417.72 230.373C418.326 231.468 418.629 232.779 418.629 234.304V234.685C418.629 236.211 418.316 237.531 417.69 238.645C417.085 239.76 416.264 240.611 415.228 241.197C414.212 241.784 413.088 242.077 411.857 242.077ZM411.241 240.024C412.726 240.024 413.928 239.555 414.847 238.616C415.785 237.658 416.254 236.328 416.254 234.627V234.363C416.254 232.661 415.785 231.341 414.847 230.403C413.928 229.444 412.726 228.965 411.241 228.965C409.775 228.965 408.564 229.444 407.606 230.403C406.668 231.341 406.199 232.661 406.199 234.363V234.627C406.199 236.328 406.668 237.658 407.606 238.616C408.564 239.555 409.775 240.024 411.241 240.024ZM429.345 242.077C427.899 242.077 426.628 241.774 425.534 241.168C424.439 240.542 423.589 239.672 422.984 238.557C422.378 237.443 422.075 236.152 422.075 234.685V234.333C422.075 232.847 422.378 231.547 422.984 230.432C423.589 229.317 424.43 228.457 425.505 227.851C426.579 227.225 427.811 226.912 429.198 226.912C430.547 226.912 431.739 227.205 432.774 227.792C433.811 228.359 434.621 229.18 435.207 230.256C435.794 231.332 436.087 232.593 436.087 234.04V235.096H424.391C424.449 236.641 424.948 237.853 425.886 238.733C426.824 239.594 427.996 240.024 429.404 240.024C430.635 240.024 431.583 239.74 432.247 239.173C432.911 238.606 433.419 237.932 433.771 237.149L435.764 238.117C435.471 238.724 435.061 239.33 434.533 239.936C434.025 240.542 433.351 241.051 432.51 241.461C431.69 241.872 430.635 242.077 429.345 242.077ZM424.42 233.189H433.742C433.664 231.86 433.205 230.823 432.364 230.08C431.544 229.337 430.488 228.965 429.198 228.965C427.889 228.965 426.814 229.337 425.974 230.08C425.133 230.823 424.615 231.86 424.42 233.189ZM446.195 242.077C444.964 242.077 443.83 241.784 442.795 241.197C441.759 240.611 440.939 239.76 440.332 238.645C439.726 237.531 439.423 236.211 439.423 234.685V234.304C439.423 232.779 439.726 231.468 440.332 230.373C440.939 229.259 441.749 228.408 442.765 227.821C443.801 227.215 444.944 226.912 446.195 226.912C447.192 226.912 448.033 227.049 448.716 227.323C449.42 227.577 449.986 227.909 450.417 228.32C450.847 228.711 451.179 229.132 451.413 229.581H451.824V221.133H454.14V241.667H451.882V239.291H451.472C451.082 240.014 450.475 240.66 449.655 241.227C448.834 241.794 447.681 242.077 446.195 242.077ZM446.811 240.024C448.297 240.024 449.499 239.555 450.417 238.616C451.355 237.658 451.824 236.328 451.824 234.627V234.363C451.824 232.661 451.355 231.341 450.417 230.403C449.499 229.444 448.297 228.965 446.811 228.965C445.345 228.965 444.134 229.444 443.176 230.403C442.238 231.341 441.769 232.661 441.769 234.363V234.627C441.769 236.328 442.238 237.658 443.176 238.616C444.134 239.555 445.345 240.024 446.811 240.024ZM465.061 242.077C463.83 242.077 462.697 241.784 461.661 241.197C460.625 240.611 459.804 239.76 459.198 238.645C458.593 237.531 458.289 236.211 458.289 234.685V234.304C458.289 232.779 458.593 231.468 459.198 230.373C459.804 229.259 460.616 228.408 461.631 227.821C462.668 227.215 463.811 226.912 465.061 226.912C466.058 226.912 466.899 227.049 467.582 227.323C468.286 227.577 468.853 227.909 469.283 228.32C469.713 228.711 470.045 229.132 470.279 229.581H470.69V221.133H473.006V241.667H470.748V239.291H470.338C469.947 240.014 469.341 240.66 468.52 241.227C467.699 241.794 466.547 242.077 465.061 242.077ZM465.677 240.024C467.162 240.024 468.364 239.555 469.283 238.616C470.221 237.658 470.69 236.328 470.69 234.627V234.363C470.69 232.661 470.221 231.341 469.283 230.403C468.364 229.444 467.162 228.965 465.677 228.965C464.211 228.965 463 229.444 462.042 230.403C461.104 231.341 460.634 232.661 460.634 234.363V234.627C460.634 236.328 461.104 237.658 462.042 238.616C463 239.555 464.211 240.024 465.677 240.024ZM484.425 242.077C482.979 242.077 481.71 241.774 480.614 241.168C479.52 240.542 478.67 239.672 478.064 238.557C477.459 237.443 477.155 236.152 477.155 234.685V234.333C477.155 232.847 477.459 231.547 478.064 230.432C478.67 229.317 479.511 228.457 480.585 227.851C481.66 227.225 482.892 226.912 484.279 226.912C485.627 226.912 486.82 227.205 487.855 227.792C488.892 228.359 489.702 229.18 490.288 230.256C490.875 231.332 491.168 232.593 491.168 234.04V235.096H479.471C479.53 236.641 480.028 237.853 480.966 238.733C481.904 239.594 483.077 240.024 484.484 240.024C485.715 240.024 486.664 239.74 487.327 239.173C487.992 238.606 488.5 237.932 488.852 237.149L490.845 238.117C490.552 238.724 490.142 239.33 489.614 239.936C489.106 240.542 488.432 241.051 487.591 241.461C486.77 241.872 485.715 242.077 484.425 242.077ZM479.5 233.189H488.823C488.745 231.86 488.286 230.823 487.445 230.08C486.624 229.337 485.569 228.965 484.279 228.965C482.97 228.965 481.895 229.337 481.054 230.08C480.214 230.823 479.696 231.86 479.5 233.189ZM501.276 242.077C500.045 242.077 498.911 241.784 497.876 241.197C496.84 240.611 496.019 239.76 495.413 238.645C494.807 237.531 494.504 236.211 494.504 234.685V234.304C494.504 232.779 494.807 231.468 495.413 230.373C496.019 229.259 496.83 228.408 497.846 227.821C498.882 227.215 500.025 226.912 501.276 226.912C502.273 226.912 503.114 227.049 503.797 227.323C504.501 227.577 505.067 227.909 505.498 228.32C505.928 228.711 506.26 229.132 506.494 229.581H506.905V221.133H509.221V241.667H506.963V239.291H506.553C506.163 240.014 505.556 240.66 504.735 241.227C503.915 241.794 502.762 242.077 501.276 242.077ZM501.892 240.024C503.378 240.024 504.58 239.555 505.498 238.616C506.436 237.658 506.905 236.328 506.905 234.627V234.363C506.905 232.661 506.436 231.341 505.498 230.403C504.58 229.444 503.378 228.965 501.892 228.965C500.426 228.965 499.215 229.444 498.257 230.403C497.319 231.341 496.85 232.661 496.85 234.363V234.627C496.85 236.328 497.319 237.658 498.257 238.616C499.215 239.555 500.426 240.024 501.892 240.024ZM528.17 242.077C526.723 242.077 525.453 241.774 524.359 241.168C523.264 240.542 522.414 239.672 521.809 238.557C521.203 237.443 520.9 236.152 520.9 234.685V234.333C520.9 232.847 521.203 231.547 521.809 230.432C522.414 229.317 523.255 228.457 524.33 227.851C525.404 227.225 526.635 226.912 528.024 226.912C529.372 226.912 530.564 227.205 531.6 227.792C532.636 228.359 533.447 229.18 534.034 230.256C534.62 231.332 534.913 232.593 534.913 234.04V235.096H523.216C523.275 236.641 523.773 237.853 524.711 238.733C525.649 239.594 526.822 240.024 528.229 240.024C529.46 240.024 530.408 239.74 531.073 239.173C531.736 238.606 532.245 237.932 532.597 237.149L534.591 238.117C534.297 238.724 533.887 239.33 533.359 239.936C532.85 240.542 532.176 241.051 531.337 241.461C530.516 241.872 529.46 242.077 528.17 242.077ZM523.246 233.189H532.568C532.489 231.86 532.029 230.823 531.19 230.08C530.369 229.337 529.314 228.965 528.024 228.965C526.714 228.965 525.639 229.337 524.799 230.08C523.958 230.823 523.44 231.86 523.246 233.189ZM538.952 241.667V221.133H541.268V241.667H538.952ZM552.705 242.077C551.258 242.077 549.988 241.774 548.894 241.168C547.798 240.542 546.948 239.672 546.343 238.557C545.737 237.443 545.435 236.152 545.435 234.685V234.333C545.435 232.847 545.737 231.547 546.343 230.432C546.948 229.317 547.789 228.457 548.865 227.851C549.939 227.225 551.17 226.912 552.558 226.912C553.907 226.912 555.098 227.205 556.135 227.792C557.17 228.359 557.982 229.18 558.568 230.256C559.154 231.332 559.447 232.593 559.447 234.04V235.096H547.751C547.809 236.641 548.308 237.853 549.246 238.733C550.184 239.594 551.356 240.024 552.763 240.024C553.995 240.024 554.942 239.74 555.607 239.173C556.271 238.606 556.78 237.932 557.131 237.149L559.125 238.117C558.832 238.724 558.421 239.33 557.894 239.936C557.385 240.542 556.71 241.051 555.871 241.461C555.05 241.872 553.995 242.077 552.705 242.077ZM547.78 233.189H557.102C557.024 231.86 556.564 230.823 555.724 230.08C554.903 229.337 553.848 228.965 552.558 228.965C551.248 228.965 550.173 229.337 549.334 230.08C548.493 230.823 547.974 231.86 547.78 233.189ZM570.082 242.077C568.695 242.077 567.444 241.784 566.33 241.197C565.236 240.591 564.366 239.731 563.721 238.616C563.096 237.501 562.783 236.181 562.783 234.656V234.333C562.783 232.788 563.096 231.468 563.721 230.373C564.366 229.259 565.236 228.408 566.33 227.821C567.444 227.215 568.695 226.912 570.082 226.912C571.451 226.912 572.613 227.166 573.571 227.675C574.547 228.183 575.31 228.858 575.857 229.699C576.424 230.54 576.786 231.439 576.942 232.397L574.685 232.867C574.587 232.163 574.353 231.517 573.981 230.931C573.629 230.344 573.131 229.875 572.486 229.523C571.841 229.171 571.05 228.995 570.111 228.995C569.153 228.995 568.294 229.21 567.532 229.64C566.79 230.07 566.193 230.686 565.744 231.488C565.313 232.29 565.099 233.248 565.099 234.363V234.627C565.099 235.741 565.313 236.7 565.744 237.501C566.193 238.303 566.79 238.919 567.532 239.349C568.294 239.78 569.153 239.995 570.111 239.995C571.539 239.995 572.623 239.623 573.366 238.88C574.128 238.137 574.597 237.218 574.773 236.123L577.059 236.621C576.845 237.56 576.453 238.45 575.887 239.291C575.32 240.132 574.547 240.806 573.571 241.315C572.613 241.823 571.451 242.077 570.082 242.077ZM585.682 241.667C584.861 241.667 584.227 241.442 583.776 240.992C583.347 240.542 583.132 239.926 583.132 239.144V229.347H578.822V227.323H583.132V222.219H585.447V227.323H590.138V229.347H585.447V238.792C585.447 239.379 585.731 239.672 586.298 239.672H589.493V241.667H585.682ZM593.89 241.667V227.323H596.148V229.083H596.558C596.811 228.457 597.203 227.997 597.731 227.704C598.258 227.411 598.951 227.264 599.812 227.264H601.512V229.376H599.665C598.629 229.376 597.789 229.669 597.144 230.256C596.518 230.823 596.206 231.713 596.206 232.925V241.667H593.89ZM611.05 242.077C609.603 242.077 608.324 241.774 607.21 241.168C606.115 240.562 605.255 239.711 604.63 238.616C604.024 237.501 603.722 236.191 603.722 234.685V234.304C603.722 232.818 604.024 231.517 604.63 230.403C605.255 229.288 606.115 228.428 607.21 227.821C608.324 227.215 609.603 226.912 611.05 226.912C612.496 226.912 613.766 227.215 614.861 227.821C615.975 228.428 616.835 229.288 617.441 230.403C618.066 231.517 618.379 232.818 618.379 234.304V234.685C618.379 236.191 618.066 237.501 617.441 238.616C616.835 239.711 615.975 240.562 614.861 241.168C613.766 241.774 612.496 242.077 611.05 242.077ZM611.05 239.995C612.575 239.995 613.786 239.516 614.686 238.557C615.604 237.58 616.063 236.269 616.063 234.627V234.363C616.063 232.72 615.604 231.42 614.686 230.461C613.786 229.484 612.575 228.995 611.05 228.995C609.545 228.995 608.333 229.484 607.415 230.461C606.496 231.42 606.038 232.72 606.038 234.363V234.627C606.038 236.269 606.496 237.58 607.415 238.557C608.333 239.516 609.545 239.995 611.05 239.995ZM622.546 241.667V227.323H624.803V229.757H625.214C625.527 229.073 626.055 228.457 626.797 227.909C627.559 227.342 628.673 227.059 630.139 227.059C631.214 227.059 632.172 227.284 633.012 227.733C633.873 228.183 634.556 228.848 635.064 229.728C635.573 230.608 635.826 231.693 635.826 232.984V241.667H633.51V233.16C633.51 231.732 633.149 230.696 632.425 230.051C631.722 229.405 630.765 229.083 629.552 229.083C628.165 229.083 627.031 229.532 626.152 230.432C625.292 231.332 624.862 232.671 624.862 234.451V241.667H622.546ZM640.526 241.667V227.323H642.842V241.667H640.526ZM641.698 225.093C641.189 225.093 640.76 224.927 640.409 224.595C640.075 224.262 639.91 223.842 639.91 223.333C639.91 222.805 640.075 222.375 640.409 222.043C640.76 221.71 641.189 221.544 641.698 221.544C642.206 221.544 642.626 221.71 642.959 222.043C643.291 222.375 643.457 222.805 643.457 223.333C643.457 223.842 643.291 224.262 642.959 224.595C642.626 224.927 642.206 225.093 641.698 225.093ZM654.307 242.077C652.92 242.077 651.668 241.784 650.554 241.197C649.46 240.591 648.59 239.731 647.945 238.616C647.32 237.501 647.007 236.181 647.007 234.656V234.333C647.007 232.788 647.32 231.468 647.945 230.373C648.59 229.259 649.46 228.408 650.554 227.821C651.668 227.215 652.92 226.912 654.307 226.912C655.675 226.912 656.838 227.166 657.795 227.675C658.773 228.183 659.535 228.858 660.082 229.699C660.649 230.54 661.011 231.439 661.166 232.397L658.909 232.867C658.812 232.163 658.577 231.517 658.206 230.931C657.854 230.344 657.355 229.875 656.711 229.523C656.066 229.171 655.274 228.995 654.336 228.995C653.379 228.995 652.518 229.21 651.756 229.64C651.014 230.07 650.418 230.686 649.968 231.488C649.539 232.29 649.323 233.248 649.323 234.363V234.627C649.323 235.741 649.539 236.7 649.968 237.501C650.418 238.303 651.014 238.919 651.756 239.349C652.518 239.78 653.379 239.995 654.336 239.995C655.763 239.995 656.848 239.623 657.59 238.88C658.352 238.137 658.821 237.218 658.997 236.123L661.284 236.621C661.069 237.56 660.679 238.45 660.111 239.291C659.545 240.132 658.773 240.806 657.795 241.315C656.838 241.823 655.675 242.077 654.307 242.077ZM671.007 242.077C669.228 242.077 667.724 241.667 666.493 240.845C665.28 240.024 664.547 238.724 664.294 236.944L666.493 236.445C666.648 237.384 666.942 238.127 667.372 238.675C667.801 239.203 668.329 239.584 668.955 239.819C669.6 240.034 670.284 240.141 671.007 240.141C672.081 240.141 672.931 239.926 673.558 239.496C674.183 239.066 674.496 238.489 674.496 237.765C674.496 237.022 674.192 236.504 673.587 236.211C673.001 235.898 672.189 235.644 671.154 235.448L669.952 235.243C669.032 235.086 668.193 234.842 667.431 234.509C666.668 234.177 666.062 233.727 665.613 233.16C665.163 232.593 664.939 231.879 664.939 231.019C664.939 229.728 665.437 228.721 666.434 227.997C667.431 227.274 668.75 226.912 670.391 226.912C672.013 226.912 673.323 227.284 674.32 228.027C675.335 228.75 675.991 229.777 676.284 231.107L674.115 231.664C673.939 230.628 673.518 229.904 672.854 229.493C672.189 229.063 671.368 228.848 670.391 228.848C669.413 228.848 668.642 229.034 668.076 229.405C667.508 229.757 667.225 230.285 667.225 230.989C667.225 231.674 667.489 232.182 668.017 232.515C668.563 232.828 669.287 233.062 670.186 233.219L671.388 233.424C672.404 233.6 673.312 233.844 674.115 234.157C674.935 234.451 675.58 234.881 676.049 235.448C676.537 236.015 676.782 236.758 676.782 237.677C676.782 239.085 676.255 240.171 675.199 240.933C674.163 241.696 672.766 242.077 671.007 242.077ZM694.787 242.077C693.34 242.077 692.07 241.774 690.976 241.168C689.881 240.542 689.031 239.672 688.426 238.557C687.819 237.443 687.517 236.152 687.517 234.685V234.333C687.517 232.847 687.819 231.547 688.426 230.432C689.031 229.317 689.872 228.457 690.947 227.851C692.021 227.225 693.252 226.912 694.641 226.912C695.989 226.912 697.18 227.205 698.217 227.792C699.253 228.359 700.064 229.18 700.65 230.256C701.237 231.332 701.53 232.593 701.53 234.04V235.096H689.833C689.892 236.641 690.39 237.853 691.328 238.733C692.266 239.594 693.439 240.024 694.846 240.024C696.077 240.024 697.025 239.74 697.689 239.173C698.353 238.606 698.862 237.932 699.214 237.149L701.207 238.117C700.914 238.724 700.504 239.33 699.976 239.936C699.467 240.542 698.793 241.051 697.953 241.461C697.132 241.872 696.077 242.077 694.787 242.077ZM689.862 233.189H699.185C699.106 231.86 698.646 230.823 697.807 230.08C696.986 229.337 695.931 228.965 694.641 228.965C693.331 228.965 692.255 229.337 691.416 230.08C690.575 230.823 690.057 231.86 689.862 233.189ZM705.569 241.667V227.323H707.826V229.757H708.236C708.549 229.073 709.077 228.457 709.819 227.909C710.582 227.342 711.696 227.059 713.161 227.059C714.237 227.059 715.193 227.284 716.034 227.733C716.894 228.183 717.579 228.848 718.086 229.728C718.594 230.608 718.849 231.693 718.849 232.984V241.667H716.533V233.16C716.533 231.732 716.172 230.696 715.448 230.051C714.744 229.405 713.786 229.083 712.575 229.083C711.188 229.083 710.054 229.532 709.174 230.432C708.315 231.332 707.885 232.671 707.885 234.451V241.667H705.569ZM728.424 241.667C727.603 241.667 726.968 241.442 726.519 240.992C726.088 240.542 725.874 239.926 725.874 239.144V229.347H721.564V227.323H725.874V222.219H728.189V227.323H732.88V229.347H728.189V238.792C728.189 239.379 728.472 239.672 729.04 239.672H732.235V241.667H728.424ZM736.631 241.667V221.133H738.947V229.611H739.357C739.552 229.18 739.845 228.78 740.237 228.408C740.647 228.017 741.164 227.694 741.79 227.44C742.435 227.186 743.246 227.059 744.224 227.059C745.298 227.059 746.256 227.293 747.097 227.763C747.956 228.212 748.64 228.877 749.149 229.757C749.656 230.618 749.911 231.693 749.911 232.984V241.667H747.595V233.16C747.595 231.732 747.233 230.696 746.51 230.051C745.807 229.405 744.849 229.083 743.637 229.083C742.249 229.083 741.116 229.532 740.237 230.432C739.376 231.332 738.947 232.671 738.947 234.451V241.667H736.631ZM759.862 241.931C758.827 241.931 757.869 241.706 756.989 241.256C756.13 240.806 755.445 240.141 754.937 239.261C754.448 238.362 754.204 237.276 754.204 236.005V227.323H756.52V235.829C756.52 237.257 756.872 238.293 757.576 238.939C758.299 239.584 759.266 239.907 760.478 239.907C761.846 239.907 762.97 239.457 763.849 238.557C764.728 237.658 765.168 236.318 765.168 234.539V227.323H767.484V241.667H765.227V239.232H764.816C764.503 239.916 763.966 240.542 763.204 241.109C762.442 241.657 761.328 241.931 759.862 241.931ZM778.106 242.077C776.327 242.077 774.822 241.667 773.591 240.845C772.378 240.024 771.646 238.724 771.392 236.944L773.591 236.445C773.747 237.384 774.04 238.127 774.471 238.675C774.9 239.203 775.427 239.584 776.054 239.819C776.698 240.034 777.382 240.141 778.106 240.141C779.18 240.141 780.03 239.926 780.656 239.496C781.281 239.066 781.594 238.489 781.594 237.765C781.594 237.022 781.29 236.504 780.685 236.211C780.099 235.898 779.288 235.644 778.252 235.448L777.05 235.243C776.131 235.086 775.291 234.842 774.529 234.509C773.767 234.177 773.161 233.727 772.712 233.16C772.261 232.593 772.037 231.879 772.037 231.019C772.037 229.728 772.536 228.721 773.532 227.997C774.529 227.274 775.848 226.912 777.49 226.912C779.112 226.912 780.422 227.284 781.418 228.027C782.434 228.75 783.089 229.777 783.382 231.107L781.213 231.664C781.037 230.628 780.616 229.904 779.952 229.493C779.288 229.063 778.467 228.848 777.49 228.848C776.512 228.848 775.74 229.034 775.174 229.405C774.606 229.757 774.324 230.285 774.324 230.989C774.324 231.674 774.588 232.182 775.115 232.515C775.662 232.828 776.385 233.062 777.285 233.219L778.487 233.424C779.502 233.6 780.411 233.844 781.213 234.157C782.034 234.451 782.679 234.881 783.148 235.448C783.636 236.015 783.881 236.758 783.881 237.677C783.881 239.085 783.353 240.171 782.298 240.933C781.261 241.696 779.865 242.077 778.106 242.077ZM787.789 241.667V227.323H790.105V241.667H787.789ZM788.962 225.093C788.454 225.093 788.024 224.927 787.672 224.595C787.34 224.262 787.173 223.842 787.173 223.333C787.173 222.805 787.34 222.375 787.672 222.043C788.024 221.71 788.454 221.544 788.962 221.544C789.471 221.544 789.89 221.71 790.222 222.043C790.555 222.375 790.721 222.805 790.721 223.333C790.721 223.842 790.555 224.262 790.222 224.595C789.89 224.927 789.471 225.093 788.962 225.093ZM799.373 242.077C798.376 242.077 797.467 241.901 796.646 241.549C795.825 241.197 795.18 240.689 794.711 240.024C794.242 239.359 794.008 238.548 794.008 237.589C794.008 236.612 794.242 235.81 794.711 235.184C795.18 234.539 795.825 234.06 796.646 233.747C797.467 233.414 798.385 233.248 799.402 233.248H804.239V232.192C804.239 231.175 803.935 230.373 803.33 229.787C802.744 229.2 801.864 228.907 800.692 228.907C799.538 228.907 798.64 229.19 797.995 229.757C797.35 230.305 796.91 231.048 796.676 231.987L794.506 231.283C794.741 230.481 795.111 229.757 795.62 229.112C796.128 228.447 796.802 227.919 797.643 227.528C798.502 227.117 799.529 226.912 800.721 226.912C802.557 226.912 803.984 227.391 805.001 228.349C806.017 229.288 806.526 230.618 806.526 232.339V238.821C806.526 239.408 806.799 239.701 807.346 239.701H808.666V241.667H806.643C805.998 241.667 805.48 241.491 805.089 241.139C804.697 240.767 804.503 240.278 804.503 239.672V239.525H804.151C803.935 239.897 803.642 240.288 803.272 240.699C802.92 241.09 802.431 241.412 801.806 241.667C801.18 241.94 800.369 242.077 799.373 242.077ZM799.636 240.083C801.004 240.083 802.108 239.682 802.949 238.88C803.809 238.059 804.239 236.915 804.239 235.448V235.125H799.49C798.57 235.125 797.808 235.331 797.203 235.741C796.617 236.132 796.324 236.729 796.324 237.531C796.324 238.332 796.626 238.958 797.233 239.408C797.858 239.858 798.658 240.083 799.636 240.083ZM817.498 242.077C815.72 242.077 814.214 241.667 812.983 240.845C811.772 240.024 811.039 238.724 810.784 236.944L812.983 236.445C813.14 237.384 813.433 238.127 813.862 238.675C814.293 239.203 814.821 239.584 815.445 239.819C816.09 240.034 816.775 240.141 817.498 240.141C818.573 240.141 819.423 239.926 820.048 239.496C820.674 239.066 820.986 238.489 820.986 237.765C820.986 237.022 820.684 236.504 820.077 236.211C819.491 235.898 818.681 235.644 817.644 235.448L816.442 235.243C815.524 235.086 814.683 234.842 813.921 234.509C813.159 234.177 812.554 233.727 812.103 233.16C811.654 232.593 811.429 231.879 811.429 231.019C811.429 229.728 811.928 228.721 812.924 227.997C813.921 227.274 815.24 226.912 816.882 226.912C818.505 226.912 819.813 227.284 820.81 228.027C821.827 228.75 822.481 229.777 822.774 231.107L820.605 231.664C820.429 230.628 820.009 229.904 819.344 229.493C818.681 229.063 817.86 228.848 816.882 228.848C815.905 228.848 815.134 229.034 814.566 229.405C814 229.757 813.716 230.285 813.716 230.989C813.716 231.674 813.98 232.182 814.507 232.515C815.055 232.828 815.779 233.062 816.677 233.219L817.879 233.424C818.895 233.6 819.804 233.844 820.605 234.157C821.426 234.451 822.071 234.881 822.54 235.448C823.029 236.015 823.273 236.758 823.273 237.677C823.273 239.085 822.745 240.171 821.69 240.933C820.654 241.696 819.256 242.077 817.498 242.077ZM832.143 241.667C831.322 241.667 830.688 241.442 830.238 240.992C829.809 240.542 829.593 239.926 829.593 239.144V229.347H825.283V227.323H829.593V222.219H831.909V227.323H836.599V229.347H831.909V238.792C831.909 239.379 832.193 239.672 832.759 239.672H835.954V241.667H832.143ZM841.612 242.077C841.044 242.077 840.566 241.892 840.176 241.52C839.804 241.148 839.619 240.669 839.619 240.083C839.619 239.496 839.804 239.017 840.176 238.645C840.566 238.274 841.044 238.088 841.612 238.088C842.198 238.088 842.677 238.274 843.049 238.645C843.419 239.017 843.606 239.496 843.606 240.083C843.606 240.669 843.419 241.148 843.049 241.52C842.677 241.892 842.198 242.077 841.612 242.077Z" fill="#D4F6CC"/>
</g>
<defs>
<clipPath id="clip0_12_132">
<rect width="545" height="60" fill="white" transform="translate(299 183)"/>
</clipPath>
</defs>
</svg>
