<?xml version="1.0" encoding="UTF-8" standalone="no"?>
<svg
   width="80px"
   height="80px"
   viewBox="0 0 80 80"
   version="1.1"
   id="svg2"
   sodipodi:docname="CloudFront.svg"
   inkscape:version="1.3.2 (091e20ef0f, 2023-11-25, custom)"
   xmlns:inkscape="http://www.inkscape.org/namespaces/inkscape"
   xmlns:sodipodi="http://sodipodi.sourceforge.net/DTD/sodipodi-0.dtd"
   xmlns="http://www.w3.org/2000/svg"
   xmlns:svg="http://www.w3.org/2000/svg">
  <sodipodi:namedview
     id="namedview2"
     pagecolor="#ffffff"
     bordercolor="#000000"
     borderopacity="0.25"
     inkscape:showpageshadow="2"
     inkscape:pageopacity="0.0"
     inkscape:pagecheckerboard="0"
     inkscape:deskcolor="#d1d1d1"
     inkscape:zoom="10.0125"
     inkscape:cx="40"
     inkscape:cy="40"
     inkscape:window-width="1920"
     inkscape:window-height="1004"
     inkscape:window-x="0"
     inkscape:window-y="40"
     inkscape:window-maximized="1"
     inkscape:current-layer="svg2" />
  <!-- Generator: Sketch 64 (93537) - https://sketch.com -->
  <title
     id="title1">Icon-Architecture/64/Arch_Amazon-CloudFront_64</title>
  <desc
     id="desc1">Created with Sketch.</desc>
  <defs
     id="defs2">
    <linearGradient
       x1="0%"
       y1="100%"
       x2="100%"
       y2="0%"
       id="linearGradient-1">
      <stop
         stop-color="#4D27A8"
         offset="0%"
         id="stop1" />
      <stop
         stop-color="#A166FF"
         offset="100%"
         id="stop2" />
    </linearGradient>
  </defs>
  <g
     id="Icon-Architecture-BG/64/Networking-Content-Delivery"
     fill="url(#linearGradient-1)"
     style="fill:#000000;fill-rule:evenodd;stroke:none;stroke-width:1;fill-opacity:1">
    <rect
       id="Rectangle"
       x="0"
       y="0"
       width="80"
       height="80"
       style="fill:#000000;fill-opacity:1" />
  </g>
  <path
     d="m 55.122,52.123 c 0,-1.654 -1.346,-3 -3,-3 -1.654,0 -3,1.346 -3,3 0,1.654 1.346,3 3,3 1.654,0 3,-1.346 3,-3 z m 2,0 c 0,2.757 -2.243,5 -5,5 -2.757,0 -5,-2.243 -5,-5 0,-2.757 2.243,-5 5,-5 2.757,0 5,2.243 5,5 z M 30.392,37.692 c 0,-1.654 -1.346,-3 -3,-3 -1.655,0 -3,1.346 -3,3 0,1.654 1.345,3 3,3 1.654,0 3,-1.346 3,-3 z m 2,0 c 0,2.757 -2.244,5 -5,5 -2.757,0 -5,-2.243 -5,-5 0,-2.757 2.243,-5 5,-5 2.756,0 5,2.243 5,5 z M 39.73,22.007 c 0,1.654 1.346,3 3,3 1.655,0 3,-1.346 3,-3 0,-1.655 -1.345,-3 -3,-3 -1.654,0 -3,1.345 -3,3 z m -2,0 c 0,-2.757 2.244,-5 5,-5 2.757,0 5,2.243 5,5 0,2.757 -2.243,5 -5,5 -2.756,0 -5,-2.243 -5,-5 z M 66,40 c 0,-9.273 -4.972,-17.852 -12.988,-22.491 -1.437,0.29 -2.827,0.687 -4.561,1.314 l -0.68,-1.881 c 0.905,-0.326 1.715,-0.59 2.495,-0.816 C 47.046,14.737 43.548,14 40,14 c -1.689,0 -3.351,0.175 -4.975,0.492 1.176,0.688 2.219,1.374 3.232,2.142 l -1.209,1.593 C 35.62,17.145 34.14,16.228 32.197,15.21 22.378,18.298 15.306,26.958 14.183,37.128 c 2.059,-0.417 4.036,-0.644 6.231,-0.698 l 0.049,1.999 c -2.3,0.057 -4.276,0.301 -6.436,0.776 C 14.018,39.47 14,39.738 14,40 14,48.658 18.283,56.636 25.327,61.447 24.074,57.716 23.45,54.19 23.45,50.746 c 0,-1.964 0.338,-3.577 0.695,-5.284 0.083,-0.395 0.167,-0.797 0.249,-1.214 l 1.963,0.387 c -0.084,0.424 -0.17,0.835 -0.254,1.238 -0.35,1.672 -0.653,3.116 -0.653,4.873 0,3.908 0.858,7.949 2.604,12.337 C 31.773,65.014 35.789,66 40,66 c 2.756,0 5.446,-0.44 8.012,-1.286 1.007,-1.987 1.754,-3.862 2.378,-6.015 l 1.921,0.557 c -0.456,1.57 -0.979,2.997 -1.602,4.421 1.614,-0.726 3.141,-1.624 4.574,-2.672 -0.345,-0.846 -0.715,-1.687 -1.124,-2.506 l 1.789,-0.895 c 0.348,0.696 0.667,1.408 0.972,2.124 C 62.705,54.775 66,47.66 66,40 Z m 2,0 c 0,8.727 -3.966,16.799 -10.879,22.149 -1.712,1.33 -3.569,2.434 -5.532,3.323 C 50.756,65.85 49.908,66.2 49.036,66.494 46.156,67.493 43.113,68 40,68 35.4,68 30.832,66.854 26.788,64.686 17.667,59.806 12,50.347 12,40 12,39.314 12.018,38.792 12.059,38.309 12.74,26.625 20.756,16.512 32.001,13.166 34.562,12.393 37.255,12 40,12 c 4.808,0 9.539,1.238 13.684,3.579 C 62.513,20.525 68,29.884 68,40 Z M 37.314,25.463 36,23.956 c -2.242,1.956 -3.986,4.033 -6.023,7.17 l 1.678,1.089 c 1.928,-2.971 3.568,-4.927 5.659,-6.752 z m -3.039,12.964 -0.65,1.891 c 4.593,1.577 8.6,4.093 12.609,7.918 l 1.381,-1.447 C 43.389,42.758 39.15,40.101 34.275,38.427 Z M 47.646,26.668 c 3.752,5.722 5.865,12.003 6.279,18.67 l -1.996,0.124 C 51.536,39.146 49.533,33.192 45.975,27.765 Z"
     id="Amazon-CloudFront_Icon_64_Squid"
     fill="#ffffff"
     style="fill-rule:evenodd;stroke:none;stroke-width:1" />
</svg>
