<?xml version="1.0" encoding="UTF-8" standalone="no"?>
<svg
   width="80px"
   height="80px"
   viewBox="0 0 80 80"
   version="1.1"
   id="svg2"
   sodipodi:docname="EC2_dark.svg"
   inkscape:version="1.3.2 (091e20ef0f, 2023-11-25, custom)"
   xmlns:inkscape="http://www.inkscape.org/namespaces/inkscape"
   xmlns:sodipodi="http://sodipodi.sourceforge.net/DTD/sodipodi-0.dtd"
   xmlns="http://www.w3.org/2000/svg"
   xmlns:svg="http://www.w3.org/2000/svg"
   xmlns:rdf="http://www.w3.org/1999/02/22-rdf-syntax-ns#"
   xmlns:cc="http://creativecommons.org/ns#"
   xmlns:dc="http://purl.org/dc/elements/1.1/">
  <sodipodi:namedview
     id="namedview2"
     pagecolor="#ffffff"
     bordercolor="#000000"
     borderopacity="0.25"
     inkscape:showpageshadow="2"
     inkscape:pageopacity="0.0"
     inkscape:pagecheckerboard="0"
     inkscape:deskcolor="#d1d1d1"
     inkscape:zoom="5.5625"
     inkscape:cx="39.910112"
     inkscape:cy="40"
     inkscape:window-width="1920"
     inkscape:window-height="1004"
     inkscape:window-x="0"
     inkscape:window-y="40"
     inkscape:window-maximized="1"
     inkscape:current-layer="svg2" />
  <!-- Generator: Sketch 64 (93537) - https://sketch.com -->
  <title
     id="title1">Icon-Architecture/64/Arch_Amazon-EC2_64</title>
  <desc
     id="desc1">Created with Sketch.</desc>
  <defs
     id="defs2">
    <linearGradient
       x1="0%"
       y1="100%"
       x2="100%"
       y2="0%"
       id="linearGradient-1">
      <stop
         stop-color="#C8511B"
         offset="0%"
         id="stop1" />
      <stop
         stop-color="#FF9900"
         offset="100%"
         id="stop2" />
    </linearGradient>
  </defs>
  <g
     id="Icon-Architecture-BG/64/Compute"
     fill="url(#linearGradient-1)"
     style="fill:#ffffff;fill-rule:evenodd;stroke:none;stroke-width:1;fill-opacity:1">
    <rect
       id="Rectangle"
       x="0"
       y="0"
       width="80"
       height="80"
       style="fill:#ffffff;fill-opacity:1" />
  </g>
  <path
     d="M 27,53 H 52 V 28 H 27 Z M 54,28 h 4 v 2 h -4 v 4 h 4 v 2 h -4 v 3 h 4 v 2 h -4 v 4 h 4 v 2 h -4 v 4 h 4 v 2 h -4 v 0.136 C 54,54.164 53.164,55 52.136,55 H 52 v 4 h -2 v -4 h -4 v 4 h -2 v -4 h -3 v 4 h -2 v -4 h -4 v 4 h -2 v -4 h -4 v 4 H 27 V 55 H 26.864 C 25.836,55 25,54.164 25,53.136 V 53 h -3 v -2 h 3 v -4 h -3 v -2 h 3 v -4 h -3 v -2 h 3 v -3 h -3 v -2 h 3 v -4 h -3 v -2 h 3 V 27.864 C 25,26.836 25.836,26 26.864,26 H 27 v -4 h 2 v 4 h 4 v -4 h 2 v 4 h 4 v -4 h 2 v 4 h 3 v -4 h 2 v 4 h 4 v -4 h 2 v 4 h 0.136 C 53.164,26 54,26.836 54,27.864 Z M 41,65.876 C 41,65.944 40.944,66 40.876,66 H 14.124 C 14.056,66 14,65.944 14,65.876 V 39.124 C 14,39.056 14.056,39 14.124,39 H 20 V 37 H 14.124 C 12.953,37 12,37.953 12,39.124 V 65.876 C 12,67.047 12.953,68 14.124,68 H 40.876 C 42.047,68 43,67.047 43,65.876 V 61 H 41 Z M 68,14.124 V 40.876 C 68,42.047 67.047,43 65.876,43 H 60 v -2 h 5.876 C 65.944,41 66,40.944 66,40.876 V 14.124 C 66,14.056 65.944,14 65.876,14 H 39.124 C 39.056,14 39,14.056 39,14.124 V 20 H 37 V 14.124 C 37,12.953 37.953,12 39.124,12 H 65.876 C 67.047,12 68,12.953 68,14.124 Z"
     id="Amazon-EC2_Icon_64_Squid"
     fill="#ffffff"
     style="fill-rule:evenodd;stroke:none;stroke-width:1;fill:#000000;fill-opacity:1" />
  <metadata
     id="metadata3">
    <rdf:RDF>
      <cc:Work
         rdf:about="">
        <dc:title>Icon-Architecture/64/Arch_Amazon-EC2_64</dc:title>
      </cc:Work>
    </rdf:RDF>
  </metadata>
</svg>
