<?xml version="1.0" encoding="UTF-8" standalone="no"?>
<svg
   width="80px"
   height="80px"
   viewBox="0 0 80 80"
   version="1.1"
   id="svg2"
   sodipodi:docname="Route 53_dark.svg"
   inkscape:version="1.3.2 (091e20ef0f, 2023-11-25, custom)"
   xmlns:inkscape="http://www.inkscape.org/namespaces/inkscape"
   xmlns:sodipodi="http://sodipodi.sourceforge.net/DTD/sodipodi-0.dtd"
   xmlns:xlink="http://www.w3.org/1999/xlink"
   xmlns="http://www.w3.org/2000/svg"
   xmlns:svg="http://www.w3.org/2000/svg"
   xmlns:rdf="http://www.w3.org/1999/02/22-rdf-syntax-ns#"
   xmlns:cc="http://creativecommons.org/ns#"
   xmlns:dc="http://purl.org/dc/elements/1.1/">
  <sodipodi:namedview
     id="namedview2"
     pagecolor="#ffffff"
     bordercolor="#000000"
     borderopacity="0.25"
     inkscape:showpageshadow="2"
     inkscape:pageopacity="0.0"
     inkscape:pagecheckerboard="0"
     inkscape:deskcolor="#d1d1d1"
     inkscape:zoom="3.1875"
     inkscape:cx="40"
     inkscape:cy="40"
     inkscape:window-width="1920"
     inkscape:window-height="1004"
     inkscape:window-x="0"
     inkscape:window-y="40"
     inkscape:window-maximized="1"
     inkscape:current-layer="svg2" />
  <!-- Generator: Sketch 64 (93537) - https://sketch.com -->
  <title
     id="title1">Icon-Architecture/64/Arch_Amazon-Route-53_64</title>
  <desc
     id="desc1">Created with Sketch.</desc>
  <defs
     id="defs2">
    <linearGradient
       x1="0%"
       y1="100%"
       x2="100%"
       y2="0%"
       id="linearGradient-1">
      <stop
         stop-color="#4D27A8"
         offset="0%"
         id="stop1" />
      <stop
         stop-color="#A166FF"
         offset="100%"
         id="stop2" />
    </linearGradient>
    <linearGradient
       inkscape:collect="always"
       xlink:href="#linearGradient-1"
       id="linearGradient3"
       x1="0"
       y1="80"
       x2="80"
       y2="0"
       gradientUnits="userSpaceOnUse" />
  </defs>
  <g
     id="Icon-Architecture-BG/64/Networking-Content-Delivery"
     fill="url(#linearGradient-1)"
     style="fill:url(#linearGradient3);fill-rule:evenodd;stroke:none;stroke-width:1">
    <rect
       id="Rectangle"
       x="0"
       y="0"
       width="80"
       height="80"
       style="fill:#ffffff;fill-opacity:1" />
  </g>
  <path
     d="m 48.692,40.679511 c 0.739,0.683262 1.109,1.598614 1.109,2.748055 0,1.25048 -0.45,2.248863 -1.349,2.99515 -0.9,0.747287 -2.109,1.12043 -3.626,1.12043 -1.199,0 -2.386,-0.256098 -3.56,-0.766294 v -1.531588 c 1.391,0.460177 2.577,0.689264 3.56,0.689264 0.97,0 1.716,-0.217083 2.239,-0.650249 0.523,-0.434167 0.784,-1.053405 0.784,-1.856713 0,-1.544593 -0.975,-2.31689 -2.928,-2.31689 -0.612,0 -1.218,0.03201 -1.818,0.09504 v -1.262485 l 4.02,-4.384683 h -5.665 v -1.569603 h 7.789 v 1.512581 l -3.943,4.173602 c 0.065,-0.013 0.127,-0.01901 0.192,-0.01901 h 0.191 c 1.264,0 2.265,0.341131 3.005,1.023393 M 37.574,40.345383 c 0.777,0.727279 1.166,1.728663 1.166,3.004153 0,1.25148 -0.452,2.262869 -1.359,3.035165 -0.906,0.772297 -2.098,1.158445 -3.578,1.158445 -1.3,0 -2.519,-0.256098 -3.655,-0.766294 v -1.531588 c 1.416,0.460177 2.628,0.689264 3.636,0.689264 0.97,0 1.713,-0.219084 2.229,-0.660253 0.517,-0.440169 0.776,-1.074413 0.776,-1.904731 0,-0.906348 -0.243,-1.563601 -0.728,-1.971757 -0.485,-0.408157 -1.276,-0.613236 -2.373,-0.613236 -0.791,0 -1.779,0.06502 -2.966,0.192074 V 39.71314 l 0.364,-5.724198 h 6.985 v 1.569603 h -5.378 l -0.249,3.886492 c 0.702,-0.127049 1.333,-0.191073 1.894,-0.191073 1.378,0 2.457,0.363139 3.236,1.091419 M 51.957,54.37777 C 47.103,55.250105 42.852,57.226864 40,58.837482 37.147,57.226864 32.896,55.250105 28.043,54.37777 c -1.366,-0.245094 -8.174,-1.66664 -8.174,-5.602151 0,-1.8237 0.653,-3.033164 1.907,-5.192994 1.498,-2.582991 3.362,-5.798226 3.362,-10.427003 0,-3.30827 -0.867,-6.480488 -2.579,-9.440624 0.201,-0.248096 0.406,-0.499192 0.612,-0.752289 2.536,1.267486 5.176,1.909733 7.86,1.909733 3.28,0 6.294,-0.861331 8.969,-2.560983 2.674,1.699652 5.688,2.560983 8.968,2.560983 2.684,0 5.325,-0.642247 7.861,-1.909733 0.205,0.253097 0.41,0.504193 0.611,0.752289 -1.712,2.960136 -2.579,6.132354 -2.579,9.440624 0,4.628777 1.864,7.844012 3.365,10.431005 1.251,2.155828 1.904,3.365292 1.904,5.188992 0,3.935511 -6.808,5.357057 -8.173,5.602151 m 4.904,-21.222148 c 0,-3.158212 0.891,-6.185375 2.646,-8.997454 0.228,-0.36314 0.199,-0.830319 -0.073,-1.162446 -0.508,-0.622239 -1.041,-1.277491 -1.567,-1.928741 -0.305,-0.377145 -0.835,-0.481185 -1.261,-0.247095 -2.463,1.361523 -5.032,2.051788 -7.638,2.051788 -3.144,0 -5.891,-0.845325 -8.399,-2.582992 -0.342,-0.237091 -0.797,-0.237091 -1.139,0 -2.508,1.737667 -5.255,2.582992 -8.399,2.582992 -2.606,0 -5.175,-0.690265 -7.638,-2.051788 -0.425,-0.23409 -0.956,-0.13005 -1.261,0.247095 -0.526,0.65125 -1.059,1.306502 -1.567,1.928741 -0.271,0.332127 -0.301,0.799306 -0.073,1.162446 1.756,2.812079 2.646,5.839242 2.646,8.997454 0,4.090571 -1.715,7.046706 -3.093,9.425619 -1.35,2.322892 -2.176,3.865484 -2.176,6.194378 0,5.389069 7.516,7.158749 9.82,7.571907 4.86,0.873336 9.104,2.933126 11.808,4.50673 0.155,0.09104 0.329,0.136053 0.503,0.136053 0.173,0 0.347,-0.04502 0.503,-0.136053 2.704,-1.573604 6.947,-3.633394 11.807,-4.50673 2.304,-0.413158 9.82,-2.182838 9.82,-7.571907 0,-2.328894 -0.826,-3.871486 -2.176,-6.197379 -1.378,-2.375912 -3.093,-5.332047 -3.093,-9.422618 M 52.994,60.156989 C 46.863,61.259412 41.723,64.556678 40,65.764142 38.276,64.556678 33.136,61.259412 27.005,60.156989 14.937,57.989157 14,50.897434 14,48.775619 c 0,-3.49034 1.371,-5.852247 2.697,-8.138124 1.264,-2.177836 2.571,-4.430701 2.571,-7.481873 0,-4.81985 -2.783,-8.224157 -4.156,-9.609689 1.444,-1.756675 5.092,-6.204382 6.891,-8.522272 2.726,2.572988 5.895,3.976527 9.028,3.976527 3.478,0 6.354,-1.415544 8.969,-4.435703 2.614,3.020159 5.49,4.435703 8.968,4.435703 3.133,0 6.302,-1.403539 9.029,-3.976527 1.799,2.31789 5.446,6.765597 6.89,8.522272 -1.373,1.385532 -4.156,4.789839 -4.156,9.609689 0,3.051172 1.308,5.304037 2.571,7.481873 1.327,2.285877 2.698,4.647784 2.698,8.138124 0,2.121815 -0.938,9.213538 -13.006,11.38137 m 12.038,-20.52288 c -1.235,-2.128817 -2.301,-3.966522 -2.301,-6.478487 0,-5.28803 4.116,-8.708343 4.156,-8.740355 0.207,-0.168065 0.339,-0.412159 0.367,-0.678261 0.026,-0.266102 -0.054,-0.531204 -0.224,-0.737283 -0.067,-0.08003 -6.622,-8.027082 -8.124,-10.085872 -0.176,-0.241093 -0.449,-0.39115 -0.747,-0.409157 -0.299,-0.02201 -0.587,0.09704 -0.791,0.315121 -2.52,2.695035 -5.502,4.179604 -8.4,4.179604 -3.204,0 -5.724,-1.427548 -8.174,-4.628777 -0.379,-0.494189 -1.209,-0.494189 -1.588,0 -2.451,3.201229 -4.971,4.628777 -8.175,4.628777 -2.898,0 -5.88,-1.484569 -8.4,-4.179604 -0.204,-0.218084 -0.494,-0.342132 -0.791,-0.315121 -0.297,0.01801 -0.571,0.168064 -0.747,0.409157 -1.502,2.05879 -8.057,10.005841 -8.124,10.085872 -0.169,0.206079 -0.249,0.471181 -0.222,0.736283 0.026,0.265102 0.157,0.509195 0.363,0.67726 0.042,0.03401 4.158,3.454326 4.158,8.742356 0,2.511965 -1.066,4.34967 -2.301,6.478487 C 13.576,42.03103 12,44.747073 12,48.775619 c 0,6.711577 5.477,11.702493 14.652,13.351126 6.907,1.241477 12.682,5.622159 12.739,5.667176 C 39.57,67.930973 39.785,68 40,68 c 0.214,0 0.429,-0.06903 0.609,-0.20708 0.058,-0.04402 5.813,-4.421697 12.738,-5.666175 C 62.522,60.478112 68,55.487196 68,48.775619 68,44.747073 66.423,42.03103 65.032,39.634109"
     id="Amazon-Route-53-Icon_64_Squid"
     fill="#ffffff"
     style="fill-rule:evenodd;stroke:none;stroke-width:1;fill:#000000;fill-opacity:1" />
  <metadata
     id="metadata3">
    <rdf:RDF>
      <cc:Work
         rdf:about="">
        <dc:title>Icon-Architecture/64/Arch_Amazon-Route-53_64</dc:title>
      </cc:Work>
    </rdf:RDF>
  </metadata>
</svg>
