<?xml version="1.0" encoding="UTF-8" standalone="no"?>
<svg
   width="80px"
   height="80px"
   viewBox="0 0 80 80"
   version="1.1"
   id="svg1"
   sodipodi:docname="Simple Storage Service_dark.svg"
   inkscape:version="1.3.2 (091e20ef0f, 2023-11-25, custom)"
   xmlns:inkscape="http://www.inkscape.org/namespaces/inkscape"
   xmlns:sodipodi="http://sodipodi.sourceforge.net/DTD/sodipodi-0.dtd"
   xmlns="http://www.w3.org/2000/svg"
   xmlns:svg="http://www.w3.org/2000/svg"
   xmlns:rdf="http://www.w3.org/1999/02/22-rdf-syntax-ns#"
   xmlns:cc="http://creativecommons.org/ns#"
   xmlns:dc="http://purl.org/dc/elements/1.1/">
  <defs
     id="defs1" />
  <sodipodi:namedview
     id="namedview1"
     pagecolor="#ffffff"
     bordercolor="#000000"
     borderopacity="0.25"
     inkscape:showpageshadow="2"
     inkscape:pageopacity="0.0"
     inkscape:pagecheckerboard="0"
     inkscape:deskcolor="#d1d1d1"
     inkscape:zoom="3.2125"
     inkscape:cx="40"
     inkscape:cy="40"
     inkscape:window-width="1920"
     inkscape:window-height="1004"
     inkscape:window-x="0"
     inkscape:window-y="40"
     inkscape:window-maximized="1"
     inkscape:current-layer="svg1" />
  <title
     id="title1">Icon-Architecture/64/Arch_Amazon-Simple-Storage-Service_64</title>
  <g
     id="Rectangle"
     fill="#000000"
     style="fill-rule:evenodd;stroke:none;stroke-width:1;fill:#fefefe;fill-opacity:1">
    <rect
       x="0"
       y="0"
       width="80"
       height="80"
       id="rect1"
       style="fill:#fefefe;fill-opacity:1" />
  </g>
  <g
     id="Icon-Service/64/Amazon-Simple-Storage-Service_64"
     transform="translate(8,8)"
     fill="#ffffff"
     style="fill-rule:evenodd;stroke:none;stroke-width:1;fill:#000000;fill-opacity:1">
    <path
       d="m 52.8359,34.8926 0.384,-2.704 c 3.541,2.121 3.587,2.997 3.586013,3.021 -0.006,0.005 -0.610013,0.509 -3.970013,-0.317 z m -1.943,-0.54 c -6.12,-1.852 -14.643,-5.762 -18.092,-7.392 0,-0.014 0.004,-0.027 0.004,-0.041 0,-1.325 -1.078,-2.403 -2.404,-2.403 -1.324,0 -2.402,1.078 -2.402,2.403 0,1.325 1.078,2.403 2.402,2.403 0.582,0 1.11,-0.217 1.527,-0.562 4.058,1.921 12.515,5.774 18.68,7.594 l -2.438,17.206 c -0.007,0.047 -0.01,0.094 -0.01,0.141 0,1.515 -6.707,4.298 -17.666,4.298 -11.075,0 -17.853,-2.783 -17.853,-4.298 0,-0.046 -0.003,-0.091 -0.009,-0.136 l -5.094,-37.207 c 4.409,3.035 13.892,4.641 22.962,4.641 9.056,0 18.523,-1.6 22.941,-4.626 z M 6.9999,12.4776 c 0.072,-1.316 7.634,-6.478 23.5,-6.478 15.864,0 23.427,5.161 23.5,6.478 v 0.449 c -0.87,2.951 -10.67,6.073 -23.5,6.073 -12.852,0 -22.657,-3.132 -23.5,-6.087 z m 49,0.022 c 0,-3.465 -9.934,-8.5 -25.5,-8.5 -15.566,0 -25.5,5.035 -25.5,8.5 l 0.094,0.754 5.548,40.524 c 0.133,4.532 12.219,6.222 19.852,6.222 9.472,0 19.535,-2.178 19.665,-6.219 l 2.396,-16.897 c 1.333,0.319 2.43,0.482 3.311,0.482 1.183,0 1.983,-0.289 2.468,-0.867 0.398,-0.474 0.55,-1.048 0.436,-1.659 -0.259,-1.384 -1.902,-2.876 -5.248,-4.785 l 2.376,-16.762 z"
       id="Amazon-Simple-Storage-Service-Icon_64_Squid"
       style="fill:#000000;fill-opacity:1" />
  </g>
  <metadata
     id="metadata1">
    <rdf:RDF>
      <cc:Work
         rdf:about="">
        <dc:title>Icon-Architecture/64/Arch_Amazon-Simple-Storage-Service_64</dc:title>
      </cc:Work>
    </rdf:RDF>
  </metadata>
</svg>
