<svg width="60" height="60" viewBox="0 0 60 60" fill="none" xmlns="http://www.w3.org/2000/svg">
<g id="Vector">
<path d="M0 21.7142C0 14.1136 0 10.3132 1.47919 7.41013C2.78034 4.85651 4.85651 2.78034 7.41013 1.47919C10.3132 0 14.1136 0 21.7142 0H38.2858C45.8865 0 49.6869 0 52.5898 1.47919C55.1434 2.78034 57.2196 4.85651 58.5208 7.41013C60 10.3132 60 14.1136 60 21.7142V38.2858C60 45.8865 60 49.6869 58.5208 52.5898C57.2196 55.1434 55.1434 57.2196 52.5898 58.5208C49.6869 60 45.8865 60 38.2858 60H21.7142C14.1136 60 10.3132 60 7.41013 58.5208C4.85651 57.2196 2.78034 55.1434 1.47919 52.5898C0 49.6869 0 45.8865 0 38.2858V21.7142Z" fill="black"/>
<path d="M29.0756 37.7064H19.7779L17.8862 43.7336C17.8337 43.9575 17.6276 44.1161 17.4032 44.1049H12.6939C12.4254 44.1049 12.3315 43.9536 12.4122 43.6509L20.4621 19.8724C20.5427 19.6247 20.6233 19.3427 20.7036 19.0262C20.8091 18.4753 20.8629 17.9156 20.8648 17.3544C20.8416 17.1885 20.9874 17.042 21.1464 17.0652H27.5462C27.7337 17.0652 27.8409 17.1341 27.8681 17.2716L37.005 43.6922C37.0854 43.9676 37.005 44.1051 36.7635 44.1049H31.5309C31.3474 44.1259 31.1721 44.0001 31.1284 43.8161L29.0756 37.7064ZM21.2269 32.5048H27.5865C26.5416 28.9344 25.3624 25.4109 24.4067 21.8128C23.3756 25.4171 22.2506 29.0068 21.2269 32.5048Z" fill="#F5F5DC"/>
<path d="M42.4382 21.441C42.0276 21.4579 41.6184 21.3857 41.2367 21.2293C40.8553 21.0729 40.5103 20.8354 40.2244 20.5329C39.9394 20.217 39.7179 19.8467 39.5728 19.4428C39.4277 19.0391 39.3619 18.6099 39.3791 18.1798C39.3645 17.754 39.4376 17.3299 39.5936 16.9351C39.7498 16.5403 39.9853 16.1837 40.2849 15.8886C40.5814 15.5965 40.9316 15.3677 41.3151 15.2154C41.6985 15.063 42.1076 14.9902 42.5186 15.0011C43.4848 15.0011 44.2427 15.2969 44.7928 15.8886C45.0705 16.1961 45.2863 16.5567 45.4279 16.9499C45.5694 17.343 45.6341 17.7611 45.6178 18.1798C45.6347 18.6114 45.5668 19.0423 45.4181 19.4464C45.2696 19.8506 45.0431 20.22 44.7525 20.5329C44.4489 20.8399 44.0863 21.0791 43.6881 21.2355C43.2898 21.3917 42.8642 21.4618 42.4382 21.441ZM39.6609 43.692V23.9593C39.6609 23.7116 39.7678 23.5877 39.9829 23.5877H44.9338C45.1481 23.5877 45.2554 23.7116 45.2556 23.9593V43.692C45.2556 43.9676 45.1483 44.1051 44.9338 44.1049H40.0232C39.7817 44.1049 39.6609 43.9674 39.6609 43.692Z" fill="#F5F5DC"/>
</g>
</svg>
