<svg width="40" height="57" viewBox="0 0 40 57" fill="none" xmlns="http://www.w3.org/2000/svg">
<path id="Vector" d="M11.5 37H20M11.5 37C6.80559 37 3 40.8054 3 45.5C3 50.1945 6.80559 54 11.5 54C16.1945 54 20 50.1945 20 45.5V37M11.5 37C6.80559 37 3 33.1945 3 28.5C3 23.8054 6.80559 20 11.5 20M20 37V28.5M11.5 20H20M11.5 20C6.80559 20 3 16.1944 3 11.5C3 6.80559 6.80559 3 11.5 3H20M20 28.5V20M20 28.5C20 33.1945 23.8054 37 28.5 37C33.1945 37 37 33.1945 37 28.5C37 23.8054 33.1945 20 28.5 20M20 28.5C20 23.8054 23.8054 20 28.5 20M20 20V3M20 20H28.5M20 3H28.5C33.1945 3 37 6.80559 37 11.5C37 16.1944 33.1945 20 28.5 20" stroke="black" stroke-width="5" stroke-linecap="round" stroke-linejoin="round"/>
</svg>
