<svg width="60" height="60" viewBox="0 0 60 60" fill="none" xmlns="http://www.w3.org/2000/svg">
<g id="Vector">
<path d="M0 21.7142C0 14.1136 0 10.3132 1.47919 7.41013C2.78034 4.85651 4.85651 2.78034 7.41013 1.47919C10.3132 0 14.1136 0 21.7142 0H38.2858C45.8865 0 49.6869 0 52.5898 1.47919C55.1434 2.78034 57.2196 4.85651 58.5208 7.41013C60 10.3132 60 14.1136 60 21.7142V38.2858C60 45.8865 60 49.6869 58.5208 52.5898C57.2196 55.1434 55.1434 57.2196 52.5898 58.5208C49.6869 60 45.8865 60 38.2858 60H21.7142C14.1136 60 10.3132 60 7.41013 58.5208C4.85651 57.2196 2.78034 55.1434 1.47919 52.5898C0 49.6869 0 45.8865 0 38.2858V21.7142Z" fill="black"/>
<path d="M12.8571 43.9633V17.5787C12.8571 17.3994 12.9321 17.2967 13.1071 17.2967C15.6906 17.2967 18.273 17.1429 20.8571 17.1429C25.0504 17.1429 29.5907 18.5766 31.1822 22.9633C31.5572 24.0403 31.7571 25.1428 31.7571 26.2967C31.7571 28.5019 31.2572 30.3223 30.2571 31.7582C27.4637 35.7692 22.6221 35.7069 18.2822 35.7069V43.9378C18.3161 44.1814 18.1084 44.2967 17.9072 44.2967H13.1571C12.9572 44.2967 12.8571 44.1941 12.8571 43.9633ZM18.3071 22.2454V30.8608C20.028 30.9868 21.8286 31.0005 23.4821 30.4506C25.3076 29.9239 26.3072 28.344 26.3072 26.4506C26.3578 24.8372 25.4788 23.2892 23.9822 22.707C22.3487 22.0277 20.0704 21.987 18.3071 22.2454Z" fill="#F5F5DC"/>
<path d="M47.3501 29.1587C46.5936 28.7599 45.7879 28.4683 44.955 28.2917C43.8849 28.0399 39.6639 27.1579 39.6621 29.3651C39.6996 30.5972 41.6556 31.2009 42.5199 31.5529C45.5539 32.5946 48.9872 34.4565 48.9197 38.1994C49.0125 42.8589 44.4979 44.7216 40.6281 44.7221C38.6136 44.7429 36.5149 44.4309 34.6712 43.566C34.4951 43.4728 34.3819 43.2737 34.3894 43.0706V38.6121C34.3695 38.4334 34.5615 38.2772 34.7115 38.4058C36.5179 39.4982 38.6591 40.0288 40.749 40.0571C41.6715 40.0571 43.4998 39.9677 43.4861 38.6121C43.4861 37.3114 41.2989 36.7134 40.4269 36.3829C39.1631 35.9319 37.9648 35.3068 36.8649 34.5253C35.3276 33.4288 34.3633 31.6708 34.3894 29.7366C34.3804 25.3494 38.5361 23.3801 42.2786 23.3792C44.028 23.3646 45.9069 23.4943 47.5354 24.2049C47.7696 24.2736 47.8181 24.5205 47.8172 24.7414V28.911C47.832 29.1699 47.5446 29.2579 47.3501 29.1587Z" fill="#F5F5DC"/>
</g>
</svg>
