<svg width="60" height="59" viewBox="0 0 60 59" fill="none" xmlns="http://www.w3.org/2000/svg">
<g id="Vector">
<path d="M0 21.3523C0 13.8783 0 10.1413 1.47919 7.28663C2.78034 4.77557 4.85651 2.734 7.41013 1.45454C10.3132 0 14.1136 0 21.7142 0H38.2858C45.8865 0 49.6869 0 52.5898 1.45454C55.1434 2.734 57.2196 4.77557 58.5208 7.28663C60 10.1413 60 13.8783 60 21.3523V37.6477C60 45.1217 60 48.8587 58.5208 51.7133C57.2196 54.2244 55.1434 56.266 52.5898 57.5454C49.6869 59 45.8865 59 38.2858 59H21.7142C14.1136 59 10.3132 59 7.41013 57.5454C4.85651 56.266 2.78034 54.2244 1.47919 51.7133C0 48.8587 0 45.1217 0 37.6477V21.3523Z" fill="black"/>
<path d="M31.3854 17.3498L23.8989 29.8123L31.9084 43.0458C32.0749 43.3458 31.9084 43.4122 31.6671 43.4122H25.9517C25.5491 43.4122 25.2673 43.3979 25.1064 43.1271C24.5691 42.0716 24.0326 41.0229 23.4962 39.9809C22.9592 38.9394 22.389 37.8772 21.7858 36.7943C21.1819 35.7123 20.5849 34.6164 19.9946 33.5063C19.4576 34.589 18.8604 35.6714 18.2839 36.7538C17.7066 37.8365 17.1364 38.9122 16.5733 39.9809C16.0098 41.0503 15.4329 42.1125 14.8426 43.1676C14.7351 43.4111 14.547 43.4362 14.279 43.4362H8.76484C8.54818 43.4362 8.52204 43.2761 8.64411 43.0864L16.4123 30.2181L8.84529 17.3091C8.70784 17.125 8.82613 16.9288 9.04658 16.9437H14.7218C14.9675 16.9303 15.1847 17.0213 15.3255 17.228C15.8085 18.3106 16.3452 19.3933 16.9355 20.4755C17.5254 21.5582 18.1226 22.6273 18.7266 23.6824C19.3305 24.7379 19.9275 25.8068 20.4373 26.8895C20.9736 25.78 21.5171 24.6976 22.0674 23.6419C22.6172 22.5865 23.1806 21.5243 23.7579 20.4553C24.3347 19.3866 24.8914 18.3243 25.4282 17.2687C25.4996 17.0371 25.6701 16.9197 25.9112 16.9437H31.1839C31.3854 16.9437 31.4685 17.2141 31.3854 17.3498Z" fill="#F5F5DC"/>
<path d="M42.9366 43.9392C39.387 43.9938 35.6689 42.5565 33.7999 39.3724C32.8875 37.8437 32.4313 35.9291 32.4315 33.6283C32.4163 31.7652 32.8884 29.9309 33.7999 28.3105C36.1521 24.1759 40.8909 22.6267 45.3919 23.0334V15.0363C45.3919 14.8472 45.4725 14.7521 45.6334 14.7521H50.7049C50.8436 14.7322 50.9661 14.8558 50.9464 14.9957V38.9868C50.9464 39.9765 51.0463 40.9629 51.1076 41.9501C51.1174 42.1186 51.0182 42.2855 50.8659 42.3561C48.3602 43.4101 45.6489 43.927 42.9366 43.9392ZM45.3919 38.9054V27.8233C41.7156 26.8191 38.1465 29.5725 38.1469 33.3847C38.0597 37.3261 41.5149 40.0492 45.3919 38.9054Z" fill="#F5F5DC"/>
</g>
</svg>
