<svg width="65" height="59" viewBox="0 0 65 59" fill="none" xmlns="http://www.w3.org/2000/svg">
<path id="Vector" d="M57.8349 24.2454V27.9139H54.2547V31.5895H57.8349V35.2651H61.4175V31.5895H65V27.9139H61.4175V24.2454H57.8349ZM49.7086 24.2454H46.1237V27.9139H42.5412V31.5895H46.1237V35.2651H49.7063V31.5895H53.2888V27.9139H49.7063L49.7086 24.2454ZM41.2247 36.6943C39.6764 39.5177 37.2618 41.7369 34.3568 43.0064C31.4517 44.2759 28.2191 44.5246 25.162 43.7137C22.1049 42.9029 19.3948 41.078 17.4533 38.5231C15.5119 35.9681 14.4481 32.8265 14.4275 29.5869C14.4068 26.3474 15.4305 23.1917 17.3392 20.6109C19.2479 18.0301 21.9345 16.1691 24.981 15.3173C28.0275 14.4655 31.263 14.6708 34.184 15.9012C37.105 17.1317 39.5477 19.3182 41.1319 22.1206L53.6464 14.7361C50.4761 9.10944 45.5835 4.71441 39.7285 2.23364C33.8735 -0.247116 27.3839 -0.674733 21.2678 1.01721C15.1516 2.70916 9.75117 6.42596 5.90538 11.5903C2.05958 16.7546 -0.0163301 23.0774 9.67439e-05 29.5765C0.0165235 36.0756 2.12437 42.3873 5.99622 47.531C9.86807 52.6748 15.2872 56.3629 21.4118 58.0222C27.5365 59.6816 34.0238 59.2195 39.8662 56.7076C45.7085 54.1957 50.5789 49.7747 53.7207 44.1313L41.2247 36.6943Z" fill="black"/>
</svg>
