<svg width="75" height="75" viewBox="0 0 75 75" fill="none" xmlns="http://www.w3.org/2000/svg">
<path id="Vector" fill-rule="evenodd" clip-rule="evenodd" d="M0.0746196 0C-0.0090398 0.012182 -0.00287543 0.113014 0.00314218 0.213992C0.00314218 25.1163 0.00314218 50.0149 0.00314218 74.9166C24.8609 75.0832 50.0238 74.9404 75 74.9879C75 49.9915 75 24.9963 75 0C50.0258 0 25.049 0 0.0746196 0ZM38.0714 66.2916C36.3363 68.041 33.5981 69.0712 30.2296 69.0712C24.7047 69.0712 21.6372 66.3794 19.6791 62.6557C21.5639 61.4521 23.4902 60.2894 25.4537 59.1632C26.2544 61.4033 28.9594 63.9216 32.0118 62.3712C33.9467 61.388 33.7233 58.4069 33.7233 55.1715C33.7233 48.4534 33.7233 40.7031 33.7233 34.6424C33.7172 34.5414 33.7111 34.4405 33.7941 34.4284C36.0994 34.4284 38.4046 34.4284 40.7093 34.4284C40.7093 39.8278 40.7093 45.9355 40.7093 51.6782C40.7093 57.9304 41.1561 63.1831 38.0714 66.2916ZM69.0112 60.0905C68.6187 65.9444 63.8385 69.0528 57.3913 69.0712C51.0711 69.0894 47.0258 66.2806 44.5587 61.9429C46.3324 60.7222 48.3421 59.7389 50.191 58.5933C51.6705 60.9066 54.2326 63.13 58.0328 62.7986C60.4004 62.5923 63.1487 60.6624 61.5972 57.7377C60.8447 56.3198 59.0263 55.5996 57.3913 54.8866C52.2027 52.6228 46.1152 50.5465 46.6974 42.4123C46.8922 39.6949 48.1434 37.7853 49.7633 36.4246C51.4235 35.0303 53.6469 34.0958 56.6071 34.0013C61.9832 33.8291 64.9324 36.2204 66.944 39.5615C65.2321 40.8665 63.3461 41.9991 61.4547 43.1253C60.834 41.218 57.8376 39.3594 55.3237 40.488C54.1805 41.0006 53.1533 42.5077 53.7556 44.3369C54.2928 45.9682 56.484 46.8612 58.2467 47.6163C63.5821 49.9001 69.5447 52.132 69.0112 60.0905Z" fill="black"/>
</svg>
