<svg width="75" height="75" viewBox="0 0 75 75" fill="none" xmlns="http://www.w3.org/2000/svg">
<path id="python-[#127]" fill-rule="evenodd" clip-rule="evenodd" d="M47.79 69.2175C45.9825 69.2175 44.52 67.7477 44.52 65.9308C44.52 64.1138 45.9825 62.6477 47.79 62.6477C49.5975 62.6477 51.06 64.1138 51.06 65.9308C51.06 67.7477 49.5975 69.2175 47.79 69.2175ZM37.77 75C56.8125 75 55.6238 66.6998 55.6238 66.6998L55.6012 58.1012H37.4325V55.5194H62.8163C62.8163 55.5194 75 56.9105 75 37.5989C75 18.2872 64.3688 18.9679 64.3688 18.9679H58.0199V27.9327C58.0199 27.9327 58.3613 38.6188 47.5575 38.6188H29.535C29.535 38.6188 19.41 38.4581 19.41 48.4589V64.9915C19.41 64.9915 17.8725 75 37.77 75ZM27.2137 5.78247C29.0212 5.78247 30.48 7.25226 30.48 9.06921C30.48 10.8862 29.0212 12.3523 27.2137 12.3523C25.4062 12.3523 23.9438 10.8862 23.9438 9.06921C23.9438 7.25226 25.4062 5.78247 27.2137 5.78247ZM37.23 0C18.1913 0 19.38 8.30017 19.38 8.30017L19.4025 16.8988H37.5713V19.4806H12.1837C12.1837 19.4806 0 18.0895 0 37.4011C0 56.7128 10.635 56.0321 10.635 56.0321H16.9801V47.0673C16.9801 47.0673 16.6388 36.3812 27.4463 36.3812H45.465C45.465 36.3812 55.59 36.5419 55.59 26.5411V10.0085C55.59 10.0085 57.1275 0 37.23 0Z" fill="black"/>
</svg>
